<svg id="svg" version="1.1" xmlns="http://www.w3.org/2000/svg" xmlns:xlink="http://www.w3.org/1999/xlink" width="400" height="400" viewBox="0, 0, 400,400"><g id="svgg"><path id="path0" d="M120.000 71.568 C 118.790 71.736,116.727 72.172,115.416 72.537 C 114.105 72.901,112.665 73.208,112.216 73.218 C 111.767 73.227,110.680 73.510,109.800 73.845 C 108.920 74.180,107.488 74.632,106.617 74.848 C 103.252 75.684,94.766 79.943,89.759 83.309 C 83.767 87.336,75.468 95.207,73.109 99.100 C 72.675 99.815,72.180 100.400,72.007 100.400 C 71.835 100.400,71.583 100.715,71.448 101.100 C 71.313 101.485,70.749 102.430,70.195 103.200 C 68.091 106.125,68.147 106.028,65.500 111.298 C 64.675 112.940,64.000 114.558,64.000 114.893 C 64.000 115.228,63.744 115.714,63.431 115.974 C 63.118 116.234,62.747 117.127,62.607 117.959 C 62.466 118.792,62.078 119.996,61.743 120.636 C 61.408 121.276,60.884 123.216,60.578 124.946 C 60.272 126.677,59.828 128.325,59.592 128.610 C 58.430 130.009,58.137 149.829,59.207 154.600 C 60.484 160.289,62.762 167.869,63.787 169.834 C 64.122 170.475,64.411 171.270,64.430 171.600 C 64.449 171.930,65.076 173.280,65.822 174.600 C 66.568 175.920,67.443 177.554,67.766 178.232 C 68.089 178.909,68.634 179.696,68.977 179.981 C 69.320 180.265,69.600 180.733,69.600 181.020 C 69.600 181.308,69.829 181.781,70.108 182.071 C 70.388 182.362,71.329 183.590,72.200 184.800 C 76.237 190.408,82.897 197.064,87.809 200.400 C 92.557 203.624,93.331 204.102,96.200 205.571 C 97.080 206.021,98.070 206.561,98.400 206.771 C 99.415 207.414,103.524 209.200,103.991 209.200 C 104.234 209.200,105.100 209.538,105.916 209.952 C 106.732 210.366,108.210 210.829,109.200 210.981 C 110.190 211.134,111.592 211.527,112.316 211.855 C 113.039 212.184,115.109 212.616,116.916 212.817 C 118.722 213.017,121.370 213.362,122.800 213.583 C 128.643 214.485,139.156 213.839,145.800 212.171 C 147.120 211.840,149.190 211.335,150.400 211.051 C 151.610 210.766,153.176 210.233,153.880 209.867 C 154.584 209.500,155.396 209.200,155.683 209.200 C 155.971 209.200,157.052 208.750,158.085 208.200 C 159.118 207.650,160.120 207.200,160.311 207.200 C 160.640 207.200,163.473 205.660,166.722 203.715 C 167.535 203.228,168.830 202.478,169.600 202.048 C 174.699 199.201,184.663 189.200,188.961 182.613 C 192.113 177.785,192.458 177.202,193.714 174.600 C 195.899 170.076,196.367 168.998,196.627 167.899 C 196.770 167.294,197.228 166.130,197.644 165.314 C 198.060 164.498,198.400 163.458,198.400 163.002 C 198.400 162.545,198.742 161.189,199.161 159.986 C 199.579 158.784,200.131 155.829,200.386 153.421 C 200.642 151.012,201.019 148.152,201.225 147.066 C 202.057 142.679,200.967 132.158,198.793 123.600 C 197.808 119.725,196.289 115.746,194.201 111.574 C 191.544 106.265,190.702 104.751,189.900 103.843 C 189.515 103.406,189.200 102.901,189.200 102.721 C 189.200 101.965,183.646 95.162,180.611 92.200 C 176.516 88.203,171.590 84.000,171.000 84.000 C 170.844 84.000,170.181 83.550,169.527 83.000 C 168.873 82.450,168.104 82.000,167.818 82.000 C 167.532 82.000,167.089 81.748,166.833 81.440 C 166.275 80.767,158.657 76.966,157.100 76.584 C 156.495 76.435,156.000 76.170,156.000 75.996 C 156.000 75.598,153.764 74.801,152.640 74.798 C 152.178 74.796,151.294 74.531,150.675 74.208 C 150.056 73.885,148.164 73.358,146.471 73.037 C 144.777 72.716,142.854 72.241,142.196 71.981 C 140.784 71.424,123.375 71.101,120.000 71.568 " stroke="none" fill="#15aa5d" fill-rule="evenodd"></path><path id="path1" d="M263.000 71.578 C 261.240 71.755,259.350 72.088,258.800 72.320 C 258.250 72.551,256.637 72.950,255.215 73.207 C 253.793 73.464,252.268 73.927,251.826 74.237 C 251.384 74.547,250.560 74.800,249.996 74.800 C 249.431 74.800,248.271 75.156,247.417 75.591 C 246.564 76.026,245.221 76.589,244.433 76.842 C 243.645 77.094,242.730 77.534,242.400 77.819 C 242.070 78.104,241.303 78.462,240.696 78.613 C 239.735 78.853,238.000 80.635,238.000 81.382 C 238.000 81.524,238.585 81.909,239.300 82.238 C 240.590 82.830,240.958 83.081,245.200 86.249 C 249.872 89.738,260.800 101.552,260.800 103.113 C 260.800 103.291,261.070 103.789,261.400 104.219 C 262.950 106.237,263.902 107.986,266.723 114.000 C 268.732 118.283,271.013 125.690,271.403 129.200 C 271.537 130.410,271.929 132.726,272.274 134.347 C 272.979 137.658,272.837 148.390,272.036 152.400 C 271.794 153.610,271.331 155.950,271.007 157.600 C 270.106 162.192,269.590 164.071,268.812 165.600 C 268.421 166.370,267.965 167.630,267.800 168.400 C 267.635 169.170,267.177 170.430,266.783 171.200 C 266.389 171.970,265.868 173.050,265.625 173.600 C 265.383 174.150,264.750 175.320,264.220 176.200 C 263.689 177.080,262.971 178.340,262.624 179.000 C 258.746 186.380,249.640 195.925,240.685 201.996 C 238.971 203.158,237.634 204.303,237.714 204.541 C 237.909 205.127,245.993 209.165,247.011 209.184 C 247.457 209.193,248.193 209.460,248.646 209.777 C 249.426 210.323,251.079 210.816,256.600 212.146 C 264.319 214.005,275.269 214.561,281.335 213.400 C 283.060 213.070,285.220 212.792,286.135 212.782 C 287.051 212.773,288.520 212.485,289.400 212.143 C 290.280 211.801,291.995 211.294,293.212 211.016 C 294.429 210.739,295.995 210.216,296.692 209.856 C 297.390 209.495,298.247 209.200,298.598 209.200 C 298.949 209.200,300.082 208.750,301.115 208.200 C 302.148 207.650,303.212 207.200,303.479 207.200 C 303.746 207.200,304.628 206.750,305.438 206.200 C 306.249 205.650,307.129 205.200,307.394 205.200 C 307.659 205.200,308.202 204.840,308.600 204.400 C 308.998 203.960,309.553 203.600,309.833 203.600 C 310.114 203.600,310.584 203.358,310.880 203.063 C 311.175 202.768,311.863 202.292,312.408 202.007 C 313.890 201.230,320.418 195.869,323.072 193.249 C 326.888 189.482,332.400 182.705,332.400 181.779 C 332.400 181.514,332.698 181.051,333.062 180.749 C 333.426 180.447,333.982 179.660,334.297 179.000 C 335.136 177.242,336.235 175.282,336.706 174.705 C 336.932 174.427,337.344 173.435,337.622 172.500 C 337.900 171.565,338.271 170.800,338.448 170.800 C 338.625 170.800,338.959 170.035,339.191 169.100 C 339.423 168.165,339.880 166.860,340.206 166.200 C 344.420 157.685,345.361 135.763,341.980 124.892 C 341.551 123.512,341.200 122.121,341.200 121.800 C 341.200 121.233,339.671 117.033,338.579 114.600 C 338.283 113.940,337.765 112.770,337.428 112.000 C 337.092 111.230,336.662 110.330,336.473 110.000 C 336.284 109.670,335.839 108.860,335.484 108.200 C 333.553 104.608,332.373 102.831,328.934 98.342 C 325.898 94.377,318.995 87.523,316.000 85.498 C 315.450 85.127,314.100 84.190,313.000 83.417 C 311.900 82.645,310.797 82.009,310.549 82.006 C 310.301 82.003,309.877 81.734,309.607 81.408 C 309.337 81.083,308.640 80.570,308.058 80.269 C 307.476 79.967,306.460 79.432,305.800 79.080 C 303.336 77.765,300.225 76.400,299.693 76.400 C 299.390 76.400,298.886 76.143,298.571 75.828 C 298.257 75.514,297.013 75.052,295.807 74.801 C 294.601 74.551,293.520 74.194,293.406 74.009 C 293.291 73.824,291.893 73.452,290.299 73.183 C 288.705 72.914,286.680 72.433,285.800 72.115 C 283.909 71.430,268.171 71.060,263.000 71.578 " stroke="none" fill="#c23d3e" fill-rule="evenodd"></path><path id="path2" d="M253.764 219.376 C 251.324 219.672,248.767 220.203,248.083 220.557 C 247.399 220.911,246.606 221.200,246.320 221.201 C 243.845 221.205,235.530 227.855,233.788 231.222 C 233.454 231.870,233.024 232.400,232.833 232.400 C 232.643 232.400,232.365 232.884,232.217 233.476 C 232.068 234.067,231.599 235.040,231.173 235.637 C 230.748 236.235,230.400 236.926,230.400 237.174 C 230.400 237.421,229.950 238.693,229.400 240.000 C 228.850 241.307,228.400 243.069,228.400 243.915 C 228.400 244.762,228.088 246.432,227.706 247.627 C 226.834 250.358,226.661 275.819,227.496 278.600 C 227.760 279.480,228.150 281.428,228.362 282.930 C 228.810 286.098,231.638 293.656,232.804 294.800 C 232.916 294.910,233.526 295.799,234.159 296.775 C 242.066 308.962,265.897 313.235,278.800 304.778 C 279.130 304.562,279.854 304.163,280.410 303.892 C 281.611 303.307,282.237 302.776,285.400 299.661 C 289.143 295.976,292.161 290.699,293.100 286.200 C 294.975 277.214,294.919 275.784,292.651 274.751 C 289.641 273.379,287.620 275.205,287.196 279.681 C 285.848 293.896,276.403 301.790,260.800 301.744 C 248.867 301.709,240.871 297.383,237.615 289.200 C 237.308 288.430,236.820 287.445,236.529 287.011 C 236.238 286.577,236.000 285.840,236.000 285.374 C 236.000 284.907,235.608 283.462,235.129 282.163 C 234.311 279.942,234.249 278.968,234.103 266.000 C 233.921 249.939,234.524 244.413,236.961 239.800 C 237.310 239.140,237.599 238.420,237.605 238.200 C 237.644 236.580,244.087 229.739,246.459 228.800 C 247.196 228.507,248.070 228.050,248.400 227.784 C 249.554 226.853,256.059 225.821,260.800 225.818 C 267.690 225.813,271.326 226.763,277.659 230.225 C 282.273 232.748,286.807 241.056,287.359 248.000 C 287.857 254.262,294.400 255.274,294.400 249.089 C 294.400 246.994,292.984 239.805,292.344 238.647 C 292.115 238.233,291.685 237.207,291.388 236.366 C 290.117 232.765,285.622 227.162,282.000 224.664 C 275.092 219.901,265.014 218.014,253.764 219.376 M76.500 220.215 C 76.013 220.556,75.353 221.737,75.017 222.866 C 74.685 223.986,74.250 225.105,74.051 225.351 C 73.853 225.598,73.217 227.060,72.638 228.600 C 72.059 230.140,71.139 232.255,70.593 233.300 C 70.047 234.345,69.600 235.479,69.600 235.819 C 69.600 236.158,69.150 237.282,68.600 238.315 C 68.050 239.348,67.600 240.421,67.600 240.698 C 67.600 240.976,67.240 241.875,66.800 242.696 C 66.360 243.516,66.000 244.406,66.000 244.673 C 66.000 244.940,65.550 246.004,65.000 247.038 C 64.450 248.073,64.000 249.242,64.000 249.636 C 64.000 250.030,63.834 250.456,63.631 250.581 C 63.427 250.707,62.950 251.752,62.569 252.905 C 62.189 254.057,61.652 255.360,61.378 255.800 C 61.103 256.240,60.759 257.173,60.614 257.872 C 60.468 258.572,60.102 259.350,59.800 259.600 C 59.498 259.850,59.126 260.628,58.972 261.328 C 58.719 262.480,58.152 263.906,56.558 267.400 C 56.257 268.060,55.744 269.371,55.418 270.314 C 55.092 271.257,54.550 272.422,54.213 272.903 C 53.876 273.384,53.594 274.053,53.587 274.389 C 53.581 274.725,53.132 275.900,52.591 277.000 C 52.050 278.100,51.606 279.249,51.604 279.553 C 51.602 279.857,51.259 280.667,50.843 281.353 C 50.427 282.039,49.965 283.173,49.817 283.872 C 49.670 284.572,49.290 285.359,48.974 285.621 C 48.658 285.883,48.400 286.368,48.400 286.699 C 48.400 287.364,46.775 291.374,45.572 293.679 C 45.147 294.493,44.800 295.411,44.800 295.720 C 44.800 296.028,44.350 297.127,43.800 298.162 C 43.250 299.196,42.800 300.310,42.800 300.637 C 42.800 300.964,42.429 301.959,41.975 302.848 C 40.031 306.660,43.709 309.937,47.062 307.380 C 47.798 306.818,48.400 306.071,48.400 305.720 C 48.400 305.148,49.529 302.522,51.056 299.538 C 51.355 298.954,51.600 298.216,51.600 297.898 C 51.600 297.580,52.050 296.473,52.600 295.438 C 53.150 294.404,53.601 293.252,53.601 292.879 C 53.602 292.505,53.935 291.656,54.341 290.990 C 54.746 290.325,55.311 289.065,55.596 288.190 C 55.881 287.316,56.358 286.245,56.657 285.811 C 56.956 285.377,57.206 284.747,57.213 284.411 C 57.219 284.075,57.668 282.900,58.209 281.800 C 58.750 280.700,59.196 279.530,59.199 279.200 C 59.202 278.870,59.563 278.060,60.000 277.400 C 60.437 276.740,60.796 275.929,60.797 275.597 C 60.799 275.265,61.250 274.148,61.800 273.115 C 62.350 272.082,62.801 270.913,62.803 270.518 C 62.804 270.123,63.163 269.260,63.600 268.600 C 64.037 267.940,64.396 267.164,64.397 266.875 C 64.400 266.392,65.268 264.331,67.228 260.156 C 67.653 259.252,68.001 258.262,68.003 257.956 C 68.004 257.650,68.363 256.860,68.800 256.200 C 69.237 255.540,69.598 254.730,69.601 254.400 C 69.604 254.070,70.050 252.900,70.591 251.800 C 71.132 250.700,71.581 249.597,71.587 249.348 C 71.600 248.908,72.880 245.827,74.391 242.600 C 74.804 241.720,75.720 239.442,76.429 237.538 C 78.163 232.873,80.400 231.917,80.400 235.840 C 80.400 236.164,80.705 236.894,81.078 237.463 C 81.451 238.032,82.057 239.331,82.425 240.349 C 82.794 241.367,83.417 243.100,83.811 244.200 C 84.205 245.300,84.666 246.292,84.834 246.405 C 85.003 246.518,85.354 247.458,85.615 248.493 C 85.876 249.529,86.339 250.583,86.644 250.837 C 86.950 251.090,87.202 251.591,87.204 251.949 C 87.206 252.307,87.650 253.500,88.191 254.600 C 88.732 255.700,89.181 256.870,89.189 257.200 C 89.197 257.530,89.562 258.389,90.001 259.110 C 90.441 259.830,90.800 260.681,90.800 261.001 C 90.800 261.321,91.232 262.531,91.759 263.691 C 92.286 264.851,93.126 266.790,93.626 268.000 C 94.125 269.210,94.930 271.100,95.414 272.200 C 95.898 273.300,96.422 274.740,96.578 275.400 C 96.734 276.060,97.102 276.870,97.394 277.200 C 97.686 277.530,98.127 278.557,98.374 279.483 C 98.620 280.409,98.997 281.274,99.211 281.407 C 99.425 281.539,99.600 281.929,99.600 282.274 C 99.600 282.875,100.840 286.034,102.399 289.400 C 102.806 290.280,103.266 291.450,103.420 292.000 C 103.575 292.550,103.984 293.540,104.330 294.200 C 104.676 294.860,105.261 296.210,105.630 297.200 C 105.999 298.190,106.535 299.630,106.822 300.400 C 107.110 301.170,107.762 302.690,108.272 303.779 C 108.782 304.867,109.200 305.958,109.200 306.203 C 109.200 306.449,109.733 307.043,110.384 307.525 C 113.828 310.071,117.310 306.442,115.200 302.504 C 114.760 301.684,114.399 300.739,114.397 300.406 C 114.396 300.073,114.037 299.260,113.600 298.600 C 113.163 297.940,112.804 297.077,112.803 296.682 C 112.801 296.287,112.350 295.118,111.800 294.085 C 111.250 293.052,110.799 291.935,110.799 291.603 C 110.798 291.271,110.438 290.411,109.999 289.690 C 109.559 288.970,109.200 288.183,109.200 287.940 C 109.200 287.527,108.043 284.659,106.401 281.000 C 106.006 280.120,105.549 278.950,105.385 278.400 C 105.222 277.850,104.753 276.773,104.344 276.006 C 103.935 275.239,103.600 274.334,103.600 273.995 C 103.600 273.656,103.356 273.023,103.058 272.589 C 102.759 272.155,102.206 270.857,101.827 269.705 C 101.449 268.552,100.973 267.507,100.769 267.381 C 100.566 267.256,100.400 266.860,100.400 266.503 C 100.400 266.145,100.056 265.121,99.636 264.226 C 98.134 261.029,96.400 256.859,96.400 256.443 C 96.400 256.210,96.041 255.430,95.601 254.710 C 95.162 253.989,94.797 253.130,94.789 252.800 C 94.781 252.470,94.332 251.300,93.791 250.200 C 93.250 249.100,92.806 247.896,92.804 247.524 C 92.802 247.152,92.634 246.744,92.431 246.619 C 92.227 246.493,91.772 245.520,91.419 244.457 C 91.066 243.394,90.422 241.828,89.988 240.977 C 89.555 240.127,89.200 239.182,89.200 238.877 C 89.200 238.573,88.942 237.846,88.627 237.262 C 87.686 235.520,86.000 231.537,86.000 231.057 C 86.000 230.812,85.570 229.709,85.044 228.606 C 83.542 225.457,82.000 221.741,82.000 221.273 C 82.000 219.815,78.133 219.071,76.500 220.215 M123.549 220.261 C 123.093 220.811,122.982 228.132,122.895 263.611 C 122.775 312.031,122.511 308.182,125.952 308.182 C 129.030 308.182,128.974 308.425,129.200 294.171 C 129.436 279.291,128.601 280.814,136.531 280.806 L 142.462 280.800 143.631 279.631 C 146.874 276.387,143.718 274.000,136.187 274.000 C 131.750 274.000,130.204 273.685,129.506 272.640 C 128.757 271.518,129.165 227.755,129.931 227.062 C 131.729 225.435,162.261 226.266,165.554 228.031 C 166.343 228.454,167.171 228.803,167.394 228.807 C 168.664 228.830,173.829 233.337,175.410 235.800 C 181.985 246.051,178.944 264.637,169.835 269.871 C 164.878 272.719,160.378 273.996,155.287 273.999 C 151.429 274.001,149.891 275.051,149.891 277.681 C 149.891 280.379,150.421 280.603,156.716 280.578 C 167.384 280.534,175.601 276.258,181.308 267.778 C 181.909 266.887,182.400 265.946,182.400 265.688 C 182.400 265.430,182.759 264.630,183.199 263.910 C 183.638 263.189,183.998 262.286,183.999 261.902 C 183.999 261.517,184.401 260.077,184.891 258.702 C 186.028 255.512,186.191 244.413,185.137 242.000 C 184.801 241.230,184.392 239.889,184.229 239.019 C 184.067 238.150,183.498 236.621,182.967 235.622 C 182.435 234.624,182.000 233.679,182.000 233.523 C 182.000 230.161,172.762 223.132,165.049 220.624 L 161.898 219.600 142.998 219.600 C 125.906 219.600,124.045 219.663,123.549 220.261 M199.275 220.416 L 198.400 221.231 198.400 263.983 L 198.400 306.735 199.747 307.567 C 201.553 308.684,202.643 308.616,204.036 307.301 L 205.200 306.203 205.200 263.955 C 205.200 221.820,205.198 221.705,204.371 220.654 C 203.299 219.291,200.617 219.165,199.275 220.416 M331.148 220.185 C 331.046 220.287,329.441 220.668,327.581 221.032 C 325.722 221.396,323.840 221.915,323.400 222.186 C 322.960 222.457,321.925 222.900,321.100 223.170 C 320.275 223.441,319.600 223.816,319.600 224.004 C 319.600 224.192,319.285 224.449,318.900 224.575 C 317.998 224.871,315.290 227.420,313.979 229.208 C 308.107 237.214,308.004 252.228,313.771 259.528 C 319.409 266.666,331.167 270.718,333.447 266.308 C 334.685 263.915,332.445 261.448,328.584 260.953 C 324.162 260.386,319.252 256.352,317.548 251.884 C 316.454 249.018,316.147 239.824,317.082 237.961 C 317.347 237.432,317.818 236.370,318.129 235.600 C 318.757 234.046,321.823 230.400,322.502 230.400 C 322.741 230.400,323.234 230.131,323.596 229.803 C 327.449 226.317,341.800 226.483,346.868 230.073 C 348.403 231.160,351.600 234.447,351.600 234.937 C 351.600 235.124,351.962 235.785,352.404 236.406 C 352.847 237.027,353.374 238.406,353.575 239.470 C 354.940 246.665,356.325 248.486,359.345 247.053 C 361.124 246.209,361.317 245.555,360.984 241.499 C 360.376 234.089,355.071 226.321,348.400 223.074 C 343.989 220.928,332.354 218.979,331.148 220.185 M339.460 263.236 C 337.612 265.875,339.991 269.600,343.524 269.600 C 345.410 269.600,351.600 274.068,351.600 275.429 C 351.600 275.684,351.976 276.370,352.436 276.954 C 353.983 278.922,354.753 286.415,353.881 291.027 C 353.081 295.262,349.497 300.400,347.342 300.400 C 347.081 300.400,346.806 300.581,346.733 300.802 C 346.659 301.024,344.921 301.654,342.870 302.202 C 332.611 304.948,321.925 301.687,318.522 294.772 C 317.031 291.741,316.400 289.872,316.400 288.482 C 316.400 284.021,312.741 281.854,310.236 284.831 C 308.958 286.349,308.957 286.654,310.214 291.495 C 312.485 300.243,316.072 304.638,323.600 307.897 C 329.249 310.343,342.959 310.434,347.394 308.055 C 348.271 307.585,349.208 307.200,349.476 307.200 C 351.563 307.200,359.200 299.694,359.200 297.643 C 359.200 297.455,359.597 296.424,360.083 295.351 C 361.437 292.359,361.415 280.304,360.050 277.136 C 357.577 271.395,354.696 267.476,351.737 265.824 C 351.112 265.475,350.330 265.026,350.000 264.827 C 345.998 262.405,340.611 261.592,339.460 263.236 M64.369 278.769 C 63.066 280.072,62.917 281.093,63.785 282.771 C 64.636 284.416,64.486 284.400,78.872 284.400 L 92.079 284.400 93.240 283.158 C 94.750 281.541,94.725 280.225,93.158 278.760 L 91.915 277.600 78.727 277.600 L 65.538 277.600 64.369 278.769 " stroke="none" fill="#23358c" fill-rule="evenodd"></path></g></svg>