<svg id="svg" version="1.1" xmlns="http://www.w3.org/2000/svg" xmlns:xlink="http://www.w3.org/1999/xlink" width="400" height="231.3588850174216" viewBox="0, 0, 400,231.3588850174216"><g id="svgg"><path id="path0" d="M237.910 0.411 C 237.798 0.838,236.877 1.038,232.430 1.599 C 231.360 1.734,230.246 2.001,229.954 2.193 C 229.662 2.384,228.610 2.635,227.617 2.749 C 226.623 2.864,225.341 3.135,224.769 3.352 C 224.196 3.568,223.063 3.882,222.252 4.049 C 221.441 4.216,220.467 4.582,220.088 4.862 C 219.623 5.206,218.934 5.412,217.975 5.493 C 216.985 5.577,216.331 5.778,215.830 6.151 C 215.434 6.447,214.809 6.762,214.441 6.853 C 213.689 7.038,210.132 8.773,209.953 9.042 C 209.889 9.138,209.368 9.399,208.796 9.621 C 208.223 9.843,207.546 10.197,207.292 10.409 C 207.037 10.621,206.386 10.985,205.845 11.219 C 205.304 11.453,204.861 11.736,204.861 11.849 C 204.861 11.961,204.386 12.257,203.805 12.506 C 203.224 12.755,202.589 13.119,202.394 13.314 C 202.199 13.509,201.740 13.823,201.374 14.012 C 201.008 14.202,200.597 14.564,200.462 14.817 C 200.326 15.071,200.101 15.278,199.962 15.278 C 199.823 15.278,199.305 15.642,198.812 16.088 C 198.319 16.534,197.794 16.898,197.647 16.898 C 197.330 16.898,194.469 19.397,193.295 20.700 C 192.845 21.199,192.335 21.720,192.162 21.857 C 190.415 23.239,186.162 28.196,185.310 29.843 C 185.108 30.235,184.849 30.556,184.735 30.556 C 184.621 30.556,184.291 30.946,184.001 31.424 C 183.712 31.901,183.346 32.371,183.190 32.467 C 183.033 32.564,182.778 33.027,182.623 33.497 C 182.468 33.966,182.095 34.617,181.793 34.942 C 181.492 35.267,181.179 35.741,181.098 35.995 C 181.018 36.250,180.706 36.781,180.407 37.175 C 180.107 37.569,179.861 38.043,179.861 38.229 C 179.861 38.415,179.560 39.041,179.193 39.621 C 178.825 40.200,178.446 40.922,178.350 41.225 C 178.253 41.528,177.939 42.142,177.650 42.590 C 177.362 43.037,177.051 43.767,176.961 44.213 C 176.870 44.659,176.553 45.440,176.257 45.949 C 175.961 46.458,175.646 47.344,175.558 47.917 C 175.470 48.490,175.215 49.324,174.992 49.770 C 174.768 50.216,174.460 51.049,174.307 51.622 C 174.153 52.194,173.792 53.235,173.502 53.935 C 173.157 54.772,172.923 55.953,172.820 57.382 C 172.705 58.981,172.500 59.930,172.043 60.970 L 171.423 62.384 171.340 88.880 L 171.257 115.376 170.450 116.137 L 169.643 116.898 166.628 116.898 C 162.967 116.898,162.269 117.163,162.269 118.548 C 162.269 119.222,162.422 119.532,162.994 120.014 L 163.720 120.625 169.237 120.555 C 173.861 120.497,174.811 120.428,175.113 120.125 C 175.435 119.803,175.483 116.771,175.553 92.116 C 175.633 63.959,175.700 61.741,176.519 60.157 C 176.697 59.813,176.936 58.524,177.049 57.294 C 177.206 55.588,177.373 54.896,177.754 54.381 C 178.076 53.945,178.326 53.129,178.457 52.082 C 178.569 51.189,178.875 50.096,179.135 49.654 C 179.396 49.211,179.725 48.405,179.865 47.862 C 180.006 47.319,180.330 46.583,180.586 46.225 C 180.842 45.868,181.110 45.191,181.181 44.721 C 181.252 44.250,181.547 43.605,181.837 43.287 C 182.127 42.969,182.474 42.303,182.608 41.808 C 182.742 41.312,183.047 40.687,183.286 40.419 C 183.526 40.150,183.864 39.566,184.039 39.120 C 184.213 38.675,184.907 37.589,185.581 36.708 C 186.254 35.826,186.806 34.970,186.806 34.806 C 186.806 34.641,187.109 34.164,187.479 33.746 C 188.896 32.148,189.532 31.342,189.908 30.671 C 190.673 29.307,191.394 28.489,195.036 24.856 C 198.720 21.182,200.423 19.676,200.895 19.676 C 201.033 19.676,201.872 19.051,202.759 18.287 C 203.647 17.523,204.467 16.898,204.582 16.898 C 204.697 16.898,205.198 16.610,205.694 16.257 C 206.191 15.904,206.887 15.489,207.240 15.333 C 207.594 15.178,207.942 14.898,208.013 14.712 C 208.084 14.526,208.524 14.252,208.990 14.103 C 209.457 13.954,210.046 13.645,210.301 13.416 C 210.556 13.187,211.233 12.820,211.806 12.599 C 212.378 12.379,213.062 12.006,213.325 11.770 C 213.588 11.535,214.151 11.343,214.576 11.343 C 215.032 11.343,215.644 11.118,216.066 10.797 C 216.460 10.497,217.407 10.071,218.171 9.850 C 218.935 9.630,219.885 9.251,220.282 9.007 C 220.679 8.764,221.278 8.565,221.612 8.565 C 221.947 8.565,222.872 8.260,223.668 7.888 C 224.784 7.366,225.688 7.154,227.614 6.965 C 228.987 6.830,230.330 6.602,230.597 6.459 C 231.624 5.910,232.653 5.753,236.542 5.551 C 241.485 5.295,241.620 5.178,241.275 1.482 L 241.137 -0.000 239.577 -0.000 C 238.278 -0.000,237.999 0.069,237.910 0.411 M237.616 13.088 C 237.106 13.272,235.440 13.535,233.912 13.671 C 229.431 14.071,227.720 14.304,227.571 14.532 C 227.305 14.938,226.465 15.252,225.214 15.412 C 224.523 15.500,223.542 15.807,223.032 16.093 C 222.523 16.378,221.653 16.680,221.099 16.762 C 220.544 16.844,219.763 17.160,219.362 17.464 C 218.962 17.768,218.236 18.090,217.750 18.181 C 217.263 18.271,216.586 18.578,216.245 18.863 C 215.904 19.148,215.365 19.462,215.046 19.561 C 214.728 19.660,214.105 19.987,213.662 20.287 C 213.218 20.588,212.742 20.833,212.603 20.833 C 212.465 20.833,211.942 21.143,211.442 21.521 C 210.942 21.900,210.366 22.212,210.163 22.216 C 209.960 22.219,209.599 22.437,209.361 22.700 C 209.123 22.963,208.196 23.659,207.300 24.246 C 204.904 25.817,196.528 33.577,196.528 34.226 C 196.528 34.332,196.308 34.617,196.040 34.860 C 195.772 35.102,195.351 35.666,195.105 36.111 C 194.480 37.242,193.585 38.476,193.081 38.901 C 192.847 39.098,192.434 39.723,192.163 40.290 C 191.527 41.621,190.803 42.821,190.284 43.403 C 190.057 43.657,189.742 44.282,189.583 44.792 C 189.425 45.301,189.107 45.926,188.877 46.181 C 188.647 46.435,188.334 47.164,188.182 47.801 C 188.030 48.438,187.782 49.167,187.631 49.421 C 187.480 49.676,187.167 50.405,186.935 51.042 C 186.703 51.678,186.323 52.517,186.090 52.906 C 185.857 53.295,185.553 54.389,185.415 55.337 C 185.277 56.285,184.911 57.581,184.603 58.218 C 184.137 59.179,184.001 59.963,183.801 62.847 C 183.668 64.757,183.462 66.632,183.342 67.014 C 182.709 69.031,182.639 72.286,182.639 99.540 C 182.639 121.854,182.578 127.790,182.350 127.938 C 182.190 128.041,177.894 128.177,172.801 128.241 C 165.861 128.327,163.411 128.431,163.021 128.654 C 162.318 129.055,162.269 131.145,162.942 131.977 L 163.385 132.523 173.996 132.595 C 185.269 132.672,186.419 132.618,186.727 131.991 C 186.834 131.775,186.973 116.597,187.037 98.264 C 187.143 67.637,187.184 64.884,187.539 64.352 C 187.766 64.013,188.040 62.815,188.202 61.458 C 188.354 60.185,188.660 58.721,188.882 58.205 C 189.104 57.689,189.358 56.751,189.447 56.122 C 189.650 54.679,190.025 53.472,190.271 53.472 C 190.528 53.472,191.204 51.736,191.204 51.073 C 191.204 50.777,191.410 50.348,191.662 50.120 C 191.914 49.892,192.186 49.354,192.267 48.926 C 192.347 48.497,192.714 47.768,193.081 47.305 C 193.449 46.843,193.750 46.186,193.750 45.845 C 193.750 45.431,193.971 45.062,194.416 44.734 C 194.828 44.429,195.139 43.940,195.230 43.454 C 195.311 43.021,195.636 42.423,195.953 42.126 C 196.269 41.829,196.528 41.454,196.528 41.292 C 196.528 41.131,196.762 40.838,197.049 40.641 C 197.335 40.445,197.778 39.936,198.032 39.510 C 198.287 39.085,198.704 38.384,198.958 37.954 C 199.587 36.891,204.312 31.957,206.313 30.274 C 206.724 29.928,207.425 29.314,207.870 28.909 C 208.316 28.504,209.019 28.030,209.433 27.856 C 209.847 27.682,210.185 27.458,210.185 27.358 C 210.185 27.258,210.599 26.921,211.105 26.609 C 211.611 26.297,212.027 25.972,212.031 25.887 C 212.034 25.802,212.532 25.551,213.137 25.329 C 213.741 25.107,214.466 24.691,214.747 24.404 C 215.028 24.118,215.601 23.811,216.020 23.722 C 216.440 23.634,216.991 23.381,217.245 23.160 C 217.902 22.590,220.812 21.172,221.675 21.000 C 222.074 20.921,222.768 20.606,223.217 20.301 C 223.780 19.920,224.507 19.702,225.547 19.605 C 226.434 19.522,227.520 19.233,228.171 18.907 C 228.880 18.551,229.911 18.292,231.019 18.190 C 231.973 18.103,233.328 17.889,234.028 17.716 C 236.538 17.095,237.789 16.898,239.237 16.898 C 241.232 16.898,241.515 16.602,241.390 14.642 C 241.264 12.660,240.107 12.184,237.616 13.088 M238.140 24.417 C 237.537 24.583,236.079 24.788,234.899 24.872 C 232.090 25.073,230.411 25.409,229.958 25.862 C 229.733 26.088,228.977 26.285,227.998 26.375 C 226.897 26.476,226.195 26.676,225.724 27.025 C 225.349 27.302,224.538 27.652,223.922 27.802 C 222.625 28.119,222.077 28.374,221.464 28.944 C 221.223 29.170,220.669 29.421,220.235 29.502 C 219.800 29.584,219.444 29.741,219.444 29.851 C 219.444 29.961,218.984 30.274,218.422 30.546 C 217.859 30.819,217.278 31.187,217.130 31.365 C 216.982 31.544,216.479 31.815,216.012 31.969 C 215.545 32.124,214.884 32.520,214.543 32.849 C 212.967 34.372,212.258 34.954,211.977 34.954 C 211.433 34.954,204.861 41.700,204.861 42.258 C 204.861 42.357,204.607 42.707,204.297 43.036 C 202.998 44.412,202.291 45.371,202.036 46.100 C 201.888 46.526,201.537 47.056,201.256 47.276 C 200.976 47.497,200.677 47.953,200.593 48.290 C 200.508 48.627,200.184 49.277,199.872 49.736 C 199.561 50.195,199.306 50.671,199.306 50.793 C 199.306 50.916,199.051 51.282,198.740 51.608 C 198.347 52.019,198.103 52.649,197.937 53.681 C 197.787 54.618,197.520 55.355,197.211 55.684 C 196.867 56.049,196.659 56.700,196.512 57.873 C 196.395 58.808,196.098 59.872,195.838 60.293 C 195.537 60.780,195.294 61.771,195.149 63.104 C 194.731 66.924,194.439 69.093,194.215 70.023 C 194.078 70.593,193.990 83.989,193.987 104.873 C 193.983 130.943,193.917 138.861,193.704 139.074 C 193.493 139.284,189.834 139.352,178.649 139.352 C 161.386 139.352,162.731 139.154,162.731 141.699 C 162.731 143.211,162.765 143.311,163.337 143.529 C 164.648 144.027,197.443 143.700,197.820 143.185 C 198.100 142.801,198.148 137.283,198.148 105.452 L 198.148 68.168 198.695 67.128 C 199.137 66.288,199.273 65.576,199.399 63.426 C 199.520 61.380,199.655 60.626,199.985 60.169 C 200.221 59.842,200.584 58.913,200.791 58.105 C 200.998 57.297,201.374 56.302,201.626 55.894 C 201.877 55.487,202.083 54.875,202.083 54.534 C 202.083 54.175,202.337 53.661,202.684 53.313 C 203.015 52.983,203.434 52.211,203.616 51.598 C 203.798 50.986,204.087 50.344,204.258 50.173 C 204.429 50.002,204.754 49.502,204.980 49.063 C 205.493 48.066,205.897 47.537,209.917 42.593 C 210.952 41.321,212.118 40.184,213.194 39.397 C 213.640 39.071,214.265 38.566,214.583 38.275 C 215.794 37.167,216.852 36.343,217.062 36.343 C 217.182 36.343,217.520 36.088,217.813 35.776 C 218.106 35.464,218.632 35.146,218.981 35.069 C 219.331 34.993,219.855 34.678,220.144 34.370 C 220.433 34.062,221.045 33.687,221.504 33.538 C 221.963 33.389,222.632 33.021,222.992 32.721 C 223.368 32.408,223.950 32.176,224.359 32.176 C 224.763 32.176,225.401 31.925,225.831 31.597 C 226.262 31.268,227.253 30.879,228.121 30.697 C 228.963 30.520,229.829 30.218,230.046 30.024 C 230.262 29.830,231.065 29.605,231.829 29.522 C 233.663 29.325,235.463 28.930,235.820 28.647 C 236.267 28.292,239.060 28.134,239.432 28.442 C 239.697 28.662,239.779 33.025,239.922 54.417 L 240.094 80.127 239.569 80.686 L 239.044 81.246 226.871 81.232 C 215.131 81.219,214.652 81.236,213.374 81.697 C 212.645 81.961,211.853 82.176,211.615 82.176 C 211.376 82.176,210.722 82.487,210.162 82.866 C 209.602 83.246,208.971 83.558,208.759 83.561 C 208.548 83.563,207.923 84.054,207.370 84.651 C 206.818 85.249,206.072 86.004,205.713 86.329 C 205.354 86.655,204.911 87.234,204.730 87.616 C 204.549 87.998,204.208 88.623,203.973 89.006 C 203.737 89.388,203.468 90.117,203.373 90.626 C 203.279 91.135,203.067 91.707,202.903 91.898 C 202.110 92.821,202.087 93.615,202.144 118.337 C 202.196 141.478,202.222 142.830,202.612 143.221 C 203.156 143.764,231.914 143.872,232.454 143.333 C 232.695 143.092,232.778 138.555,232.870 120.481 L 232.986 97.929 233.514 97.402 C 234.349 96.567,238.756 96.695,239.525 97.577 L 240.046 98.174 240.046 120.720 L 240.046 143.265 240.914 143.506 C 242.238 143.874,289.168 143.841,289.537 143.472 C 290.109 142.900,289.913 67.344,289.334 65.509 C 289.074 64.682,288.768 62.880,288.654 61.505 C 288.479 59.380,288.366 58.907,287.893 58.346 C 287.519 57.901,287.287 57.257,287.183 56.371 C 287.087 55.556,286.810 54.734,286.454 54.210 C 286.138 53.745,285.880 53.137,285.880 52.858 C 285.880 52.579,285.623 52.046,285.310 51.673 C 284.997 51.301,284.648 50.587,284.536 50.087 C 284.424 49.587,283.817 48.451,283.187 47.563 C 282.557 46.675,281.838 45.624,281.588 45.226 C 279.766 42.324,278.466 40.729,275.670 37.966 C 273.098 35.424,271.104 33.725,270.295 33.384 C 269.903 33.220,269.422 32.937,269.224 32.756 C 267.668 31.328,266.883 30.787,266.367 30.787 C 266.042 30.787,265.464 30.524,265.081 30.202 C 264.699 29.881,264.040 29.500,263.617 29.355 C 263.194 29.211,262.558 28.853,262.204 28.560 C 261.850 28.267,261.173 27.962,260.699 27.881 C 260.226 27.800,259.578 27.552,259.259 27.330 C 258.680 26.925,257.246 26.539,255.365 26.283 C 254.815 26.208,254.081 25.937,253.735 25.681 C 253.243 25.317,252.508 25.166,250.378 24.993 C 248.878 24.871,246.975 24.614,246.149 24.422 C 244.307 23.995,239.684 23.992,238.140 24.417 M218.325 48.744 C 216.687 48.983,215.887 49.229,215.023 49.761 C 214.395 50.147,213.779 50.463,213.654 50.463 C 213.529 50.463,213.426 50.546,213.426 50.648 C 213.426 50.750,212.942 51.139,212.351 51.513 C 211.426 52.098,210.478 53.158,209.028 55.233 C 208.837 55.506,208.504 55.976,208.289 56.279 C 207.823 56.932,206.842 62.529,207.040 63.404 C 207.115 63.734,207.329 64.819,207.515 65.813 C 207.749 67.064,208.035 67.837,208.441 68.319 C 208.764 68.703,209.028 69.094,209.028 69.189 C 209.028 70.002,212.536 73.746,213.473 73.933 C 213.835 74.005,214.410 74.324,214.752 74.641 C 215.135 74.996,215.777 75.273,216.425 75.363 C 217.004 75.443,218.042 75.667,218.732 75.861 C 220.121 76.251,221.921 76.156,224.074 75.578 C 224.774 75.391,225.618 75.236,225.948 75.234 C 226.278 75.233,226.745 75.015,226.985 74.749 C 227.225 74.484,227.736 74.131,228.120 73.965 C 228.988 73.590,231.250 71.583,231.250 71.189 C 231.250 71.029,231.608 70.519,232.045 70.056 C 232.482 69.592,232.909 68.994,232.994 68.726 C 233.079 68.458,233.398 67.871,233.704 67.421 C 234.330 66.498,234.539 59.954,234.006 57.986 C 233.377 55.667,229.212 50.809,227.339 50.210 C 226.880 50.063,226.273 49.732,225.990 49.474 C 225.614 49.131,224.863 48.923,223.212 48.703 C 220.573 48.352,221.044 48.348,218.325 48.744 M33.218 156.416 C 32.963 156.477,32.546 156.704,32.292 156.920 C 32.037 157.136,31.530 157.462,31.166 157.645 C 30.317 158.070,28.573 160.007,27.964 161.200 C 27.705 161.708,27.355 162.262,27.186 162.430 C 26.673 162.944,26.326 166.515,26.603 168.430 C 27.043 171.466,29.489 175.145,31.597 175.940 C 31.979 176.083,32.673 176.359,33.140 176.553 C 34.235 177.007,36.822 177.000,37.539 176.542 C 37.836 176.352,38.510 176.071,39.038 175.917 C 40.572 175.468,41.804 173.854,41.323 172.923 C 40.633 171.590,39.914 171.345,39.051 172.152 C 36.388 174.642,31.648 173.508,30.639 170.139 C 30.430 169.439,30.103 168.628,29.913 168.338 C 29.547 167.780,29.661 165.451,30.079 164.946 C 30.191 164.810,30.358 164.282,30.450 163.773 C 30.717 162.290,32.324 160.185,33.190 160.185 C 33.365 160.185,33.638 160.029,33.796 159.838 C 34.104 159.467,35.639 159.360,36.007 159.684 C 36.128 159.790,36.748 160.065,37.384 160.294 C 38.021 160.523,38.757 160.904,39.020 161.142 C 39.700 161.758,40.061 161.685,41.037 160.737 C 42.093 159.712,42.093 159.752,41.030 158.790 C 38.828 156.797,35.643 155.829,33.218 156.416 M81.610 157.277 C 80.490 158.263,80.463 158.319,80.369 159.797 C 80.277 161.240,80.240 161.321,79.546 161.595 C 77.678 162.333,77.391 163.754,78.934 164.634 C 80.377 165.458,80.596 166.161,80.447 169.499 C 80.237 174.193,81.240 176.578,83.565 176.913 C 86.296 177.307,87.686 174.772,85.314 173.723 C 83.643 172.984,83.565 172.778,83.565 169.128 C 83.565 165.180,83.659 164.910,85.113 164.707 C 87.592 164.362,87.554 161.806,85.069 161.806 C 83.713 161.806,83.565 161.536,83.565 159.066 C 83.565 155.931,83.355 155.739,81.610 157.277 M196.508 156.547 C 196.062 156.889,195.602 157.717,195.602 158.176 C 195.602 159.142,198.014 159.662,198.876 158.882 C 200.220 157.665,197.957 155.434,196.508 156.547 M241.344 156.616 C 240.803 158.025,241.337 159.259,242.487 159.259 C 243.731 159.259,244.565 157.389,243.704 156.528 C 243.281 156.105,241.515 156.171,241.344 156.616 M131.327 156.863 C 131.090 157.099,130.610 157.476,130.262 157.702 L 129.630 158.113 129.630 166.890 L 129.630 175.668 130.144 176.029 C 131.946 177.291,132.356 176.403,132.470 170.991 L 132.561 166.636 133.179 166.063 C 133.518 165.748,133.796 165.395,133.796 165.277 C 133.796 164.878,135.673 164.538,136.767 164.738 C 138.689 165.091,139.093 166.189,139.172 171.273 C 139.243 175.828,139.414 176.393,140.719 176.385 C 142.175 176.377,142.363 175.758,142.351 171.022 C 142.339 166.311,142.198 165.393,141.343 164.465 C 140.993 164.084,140.354 163.360,139.924 162.855 C 139.019 161.794,137.290 161.521,134.616 162.015 C 132.708 162.369,132.568 162.194,132.413 159.268 C 132.280 156.740,132.024 156.173,131.327 156.863 M234.142 157.086 C 232.505 158.410,232.639 157.554,232.639 166.722 C 232.639 176.202,232.670 176.376,234.349 176.385 C 235.633 176.392,235.633 176.396,235.641 166.270 C 235.649 155.836,235.653 155.862,234.142 157.086 M206.142 157.501 C 205.141 158.055,204.920 158.535,204.884 160.238 C 204.860 161.407,204.488 161.828,203.223 162.119 C 201.647 162.483,202.038 164.371,203.753 164.679 C 204.939 164.891,204.928 164.851,204.988 169.472 C 205.047 174.075,205.009 173.953,207.041 175.958 C 208.981 177.871,212.464 176.531,211.582 174.211 C 211.361 173.628,211.251 173.572,210.598 173.702 C 209.966 173.829,209.742 173.730,208.983 172.989 L 208.102 172.128 208.102 169.405 C 208.102 166.423,208.471 165.116,209.363 164.937 C 209.624 164.884,210.218 164.781,210.683 164.706 C 212.665 164.389,212.533 162.238,210.519 162.035 C 208.494 161.831,208.102 161.404,208.102 159.406 C 208.102 158.058,208.015 157.632,207.679 157.328 C 207.180 156.877,207.295 156.864,206.142 157.501 M49.911 162.032 C 49.416 162.128,48.917 162.376,48.800 162.584 C 48.683 162.793,48.460 162.963,48.303 162.963 C 48.147 162.963,47.866 163.188,47.678 163.462 C 47.491 163.737,47.054 164.295,46.708 164.701 C 45.909 165.638,45.502 168.659,45.836 171.181 C 45.953 172.072,46.053 172.968,46.057 173.172 C 46.061 173.376,46.377 173.869,46.759 174.269 C 47.141 174.669,47.454 175.095,47.454 175.217 C 47.454 175.339,48.082 175.667,48.850 175.947 C 49.618 176.227,50.301 176.545,50.368 176.654 C 50.713 177.213,53.900 176.860,54.959 176.145 C 56.330 175.220,56.348 175.174,55.791 174.082 C 55.249 173.020,54.990 172.963,53.649 173.611 C 51.671 174.567,48.872 173.335,48.850 171.498 C 48.837 170.412,49.291 170.276,53.374 170.145 C 57.955 169.997,57.772 170.120,57.418 167.441 C 57.117 165.165,57.011 164.946,55.421 163.345 C 53.866 161.778,52.686 161.497,49.911 162.032 M62.811 162.081 C 61.557 162.406,61.550 162.444,61.526 169.021 C 61.502 175.580,61.553 176.036,62.334 176.245 C 64.288 176.769,64.667 176.058,64.833 171.568 C 65.028 166.290,65.570 165.008,67.743 164.682 C 70.577 164.257,71.065 165.160,71.065 170.829 C 71.065 175.863,71.100 175.991,72.586 176.288 C 74.171 176.605,74.365 175.931,74.264 170.446 C 74.123 162.747,72.294 160.599,67.106 162.040 C 66.604 162.179,65.725 162.197,64.899 162.084 C 64.144 161.980,63.204 161.979,62.811 162.081 M97.154 161.951 C 97.074 162.031,95.992 162.109,94.750 162.125 C 91.739 162.162,91.906 161.743,91.902 169.279 C 91.898 176.041,91.972 176.389,93.421 176.389 C 94.646 176.389,94.776 175.921,94.907 171.065 L 95.023 166.782 95.833 165.772 L 96.644 164.763 98.301 164.869 C 100.148 164.986,100.463 164.736,100.463 163.151 C 100.463 162.078,97.942 161.163,97.154 161.951 M107.112 162.362 C 106.631 162.690,105.932 163.115,105.560 163.308 C 105.105 163.543,104.806 163.936,104.649 164.504 C 104.521 164.969,104.142 165.635,103.808 165.984 C 102.884 166.948,103.009 171.653,103.993 172.939 C 104.343 173.396,104.630 173.873,104.630 173.999 C 104.630 174.225,106.328 175.694,106.589 175.694 C 106.662 175.694,107.134 175.966,107.636 176.299 C 109.855 177.767,115.557 175.933,113.843 174.302 C 112.608 173.125,112.310 173.030,111.571 173.577 C 109.963 174.765,106.481 172.965,106.481 170.945 C 106.481 170.389,108.099 170.142,111.740 170.140 C 115.109 170.139,115.273 170.117,115.529 169.640 C 115.856 169.028,115.639 166.855,115.179 166.132 C 115.001 165.853,114.612 165.199,114.315 164.679 C 112.765 161.969,109.316 160.860,107.112 162.362 M149.940 162.361 C 149.490 162.667,148.910 162.984,148.650 163.066 C 146.589 163.720,145.341 171.015,146.969 172.892 C 147.192 173.148,147.565 173.782,147.798 174.299 C 148.395 175.623,150.684 176.854,152.539 176.848 C 154.318 176.841,157.153 175.449,157.477 174.421 C 157.598 174.039,157.970 173.434,158.304 173.075 C 158.899 172.437,158.912 172.355,158.912 169.256 L 158.912 166.088 157.919 164.656 C 157.200 163.619,156.705 163.151,156.125 162.960 C 155.685 162.815,155.324 162.616,155.324 162.519 C 155.324 161.648,151.171 161.526,149.940 162.361 M165.712 162.094 C 161.548 164.085,163.013 169.721,167.829 170.235 C 170.346 170.503,172.179 172.787,170.909 174.074 C 170.598 174.390,165.977 174.177,165.631 173.832 C 165.075 173.276,163.774 173.519,163.446 174.239 C 163.047 175.113,163.324 175.591,164.414 175.911 C 164.953 176.068,165.639 176.355,165.940 176.547 C 167.074 177.272,170.026 177.065,171.865 176.132 C 173.881 175.109,174.266 174.510,174.289 172.361 L 174.306 170.764 173.240 169.757 C 172.531 169.088,171.967 168.750,171.557 168.750 C 171.218 168.750,170.565 168.495,170.107 168.183 C 169.648 167.871,168.973 167.551,168.606 167.471 C 167.209 167.165,166.204 166.248,166.204 165.277 C 166.204 164.529,168.869 164.145,171.065 164.577 C 172.876 164.933,173.771 163.783,172.706 162.468 C 172.174 161.811,166.894 161.528,165.712 162.094 M184.202 161.940 C 184.128 162.014,183.149 162.092,182.025 162.114 C 179.144 162.169,179.303 161.616,179.339 171.494 C 179.357 176.176,179.276 179.690,179.143 180.039 C 178.874 180.748,179.163 181.010,180.221 181.015 C 181.382 181.021,182.319 179.831,182.481 178.146 C 182.652 176.377,183.012 175.979,183.988 176.484 C 186.316 177.688,190.476 175.527,190.996 172.843 C 191.222 171.675,191.260 167.605,191.058 166.133 C 190.878 164.821,188.767 162.400,187.480 162.031 C 186.622 161.785,184.418 161.724,184.202 161.940 M218.902 162.031 C 218.082 162.291,217.610 162.893,217.600 163.691 C 217.591 164.476,217.905 164.583,220.216 164.585 C 222.697 164.586,223.795 164.892,223.981 165.635 C 224.257 166.731,223.986 166.937,222.494 166.769 C 221.492 166.655,220.964 166.707,220.458 166.968 C 220.083 167.163,219.395 167.393,218.931 167.480 C 218.466 167.567,217.897 167.848,217.666 168.105 C 217.434 168.362,217.017 168.659,216.738 168.766 C 215.448 169.259,215.445 173.812,216.735 175.101 C 218.243 176.609,220.913 177.194,222.714 176.411 C 223.588 176.030,223.930 176.002,225.214 176.202 C 227.522 176.561,227.535 176.529,227.541 170.397 C 227.547 164.548,227.433 164.000,225.953 162.787 L 224.897 161.921 222.229 161.872 C 220.761 161.844,219.264 161.916,218.902 162.031 M242.245 161.973 C 241.205 162.229,241.204 162.237,241.204 169.109 C 241.204 176.180,241.239 176.389,242.442 176.389 C 243.973 176.389,243.981 176.350,243.981 168.976 C 243.981 161.387,244.019 161.537,242.245 161.973 M253.112 162.039 C 249.956 163.018,247.697 167.862,248.818 171.246 C 249.060 171.974,249.324 172.889,249.406 173.281 C 249.945 175.844,255.167 177.720,257.768 176.285 C 259.508 175.326,259.602 175.193,259.153 174.324 C 258.555 173.167,257.360 172.842,256.535 173.611 C 255.184 174.869,252.305 173.400,252.318 171.459 C 252.326 170.318,252.516 170.259,256.478 170.181 C 261.017 170.091,261.023 170.087,260.756 167.246 C 260.412 163.564,256.589 160.961,253.112 162.039 M270.256 162.018 C 270.003 162.117,268.854 162.149,267.705 162.089 C 264.783 161.936,264.975 161.445,264.960 169.108 C 264.947 176.084,264.924 175.964,266.362 176.265 C 267.612 176.526,267.830 175.895,267.889 171.847 C 267.934 168.799,267.996 168.310,268.431 167.593 C 268.701 167.147,268.988 166.503,269.068 166.162 C 269.319 165.094,269.801 164.815,271.393 164.815 C 273.018 164.815,273.501 164.497,273.747 163.266 C 273.988 162.063,271.980 161.345,270.256 162.018 M196.852 162.214 C 196.110 162.709,196.022 163.496,196.046 169.411 L 196.071 175.347 196.674 175.880 C 197.353 176.481,198.484 176.404,199.008 175.722 C 199.363 175.260,199.401 163.110,199.049 162.454 C 198.819 162.023,197.374 161.866,196.852 162.214 M53.361 165.645 C 54.257 166.568,54.219 166.492,54.026 166.995 C 53.838 167.484,50.310 167.523,49.654 167.043 C 49.238 166.739,49.252 166.685,49.977 165.770 C 51.017 164.457,52.166 164.414,53.361 165.645 M110.459 165.021 C 111.178 165.297,112.156 166.640,111.857 166.939 C 111.027 167.770,107.574 167.599,107.449 166.721 C 107.278 165.523,109.096 164.496,110.459 165.021 M153.880 165.673 C 155.642 166.976,155.845 171.764,154.181 172.792 C 153.344 173.309,150.463 172.800,150.463 172.134 C 150.463 171.967,150.255 171.642,150.000 171.412 C 148.865 170.385,149.715 166.688,151.349 165.545 C 152.511 164.732,152.615 164.737,153.880 165.673 M186.253 165.306 C 187.975 166.688,188.257 170.958,186.736 172.627 C 185.691 173.775,183.036 173.091,182.792 171.612 C 182.002 166.830,183.882 163.404,186.253 165.306 M256.596 165.780 C 257.526 167.185,256.391 167.859,253.819 167.429 C 252.349 167.184,252.160 166.566,253.234 165.516 C 254.385 164.391,255.747 164.498,256.596 165.780 M223.611 170.437 C 225.161 171.217,223.548 174.074,221.557 174.074 C 219.507 174.074,218.299 171.059,220.087 170.406 C 220.986 170.077,222.931 170.095,223.611 170.437 M90.625 181.206 C 89.572 181.315,88.194 181.709,88.194 181.902 C 88.194 181.996,87.873 182.424,87.481 182.854 C 85.820 184.673,85.818 187.119,87.478 188.788 C 90.117 191.444,91.571 191.741,93.815 190.084 C 96.150 188.359,96.373 187.946,96.239 185.594 L 96.123 183.562 95.107 182.546 C 94.049 181.488,92.468 181.015,90.625 181.206 M16.204 182.077 C 15.249 182.407,13.901 182.737,13.208 182.811 C 12.446 182.892,11.630 183.161,11.142 183.492 C 10.698 183.793,10.072 184.105,9.751 184.186 C 8.519 184.495,4.167 188.758,4.167 189.656 C 4.167 189.809,3.881 190.454,3.533 191.090 C 2.934 192.182,2.895 192.441,2.817 195.782 L 2.736 199.319 3.451 200.802 C 3.845 201.618,4.167 202.448,4.167 202.647 C 4.167 203.140,7.388 206.371,8.105 206.597 C 8.421 206.698,8.993 207.011,9.375 207.294 C 9.757 207.578,10.583 207.876,11.210 207.957 C 11.837 208.038,12.514 208.243,12.715 208.412 C 13.258 208.871,14.315 209.212,15.741 209.389 C 16.441 209.475,17.409 209.746,17.893 209.991 C 18.376 210.237,19.446 210.518,20.269 210.617 C 21.208 210.730,22.016 210.983,22.436 211.293 C 22.805 211.566,23.748 211.892,24.532 212.018 C 29.714 212.853,30.701 219.568,25.963 221.755 C 25.370 222.029,24.624 222.401,24.306 222.581 C 23.339 223.130,16.447 223.050,15.325 222.478 C 14.852 222.237,13.997 221.915,13.425 221.762 C 12.203 221.437,10.784 220.551,9.058 219.033 C 7.613 217.762,7.307 217.746,5.671 218.851 C 2.966 220.677,0.673 223.402,1.128 224.250 C 1.638 225.201,6.037 228.935,6.649 228.935 C 6.841 228.935,7.480 229.190,8.071 229.502 C 8.661 229.814,9.534 230.225,10.012 230.416 C 10.492 230.608,10.880 230.924,10.880 231.122 C 10.880 231.440,11.849 231.481,19.329 231.481 C 27.641 231.481,27.778 231.474,27.778 231.016 C 27.778 230.682,28.122 230.385,28.993 229.968 C 33.394 227.863,34.985 226.413,36.720 222.925 C 38.549 219.249,38.275 212.614,36.160 209.352 C 34.770 207.208,34.316 206.752,32.658 205.830 C 31.692 205.293,30.642 204.648,30.324 204.395 C 30.006 204.143,29.158 203.784,28.440 203.598 C 27.722 203.412,26.716 203.042,26.205 202.775 C 25.631 202.477,24.502 202.211,23.259 202.083 C 22.099 201.963,21.082 201.732,20.864 201.539 C 20.417 201.142,18.900 200.698,17.987 200.696 C 16.384 200.693,12.956 198.556,11.961 196.941 C 11.269 195.817,12.045 192.595,13.009 192.593 C 13.098 192.593,13.463 192.282,13.819 191.902 C 15.142 190.494,23.801 190.434,25.843 191.820 C 26.282 192.118,26.737 192.361,26.854 192.361 C 27.048 192.361,27.741 192.965,29.424 194.601 L 30.028 195.188 31.623 193.841 C 33.461 192.288,36.343 189.353,36.343 189.033 C 36.343 188.526,32.843 185.463,32.106 185.325 C 31.691 185.247,31.178 184.981,30.967 184.735 C 30.756 184.488,30.134 184.155,29.586 183.995 C 29.037 183.834,28.328 183.524,28.009 183.305 C 27.691 183.086,26.649 182.784,25.694 182.635 C 24.740 182.485,23.651 182.214,23.276 182.033 C 21.917 181.375,18.167 181.399,16.204 182.077 M156.151 181.926 C 155.930 182.170,155.229 182.495,154.593 182.648 C 153.957 182.800,153.385 183.059,153.322 183.224 C 153.259 183.388,152.699 183.741,152.078 184.008 C 151.456 184.275,150.580 184.832,150.130 185.245 L 149.313 185.995 149.286 189.814 C 149.249 194.968,149.283 194.907,146.442 194.907 C 143.462 194.907,143.472 194.894,143.472 198.922 C 143.472 201.065,143.570 202.242,143.785 202.688 L 144.097 203.336 146.316 203.271 C 149.554 203.175,149.306 202.275,149.306 214.128 L 149.306 223.873 149.854 224.610 C 150.155 225.016,150.475 225.654,150.564 226.029 C 150.777 226.924,153.197 229.805,154.177 230.330 C 154.426 230.463,154.630 230.777,154.630 231.027 C 154.630 231.464,154.812 231.481,159.350 231.481 L 164.070 231.481 164.212 230.918 C 164.289 230.608,164.552 230.292,164.794 230.215 C 165.564 229.971,165.733 229.527,165.982 227.093 C 166.163 225.328,166.379 224.424,166.822 223.577 C 167.757 221.790,167.151 221.233,165.430 222.296 C 164.316 222.983,164.095 223.032,162.127 223.030 C 159.722 223.027,159.463 222.896,159.042 221.473 C 158.882 220.930,158.619 220.330,158.459 220.139 C 157.778 219.328,157.668 218.157,157.650 211.495 C 157.626 202.869,157.512 203.105,161.550 203.392 C 166.949 203.775,167.365 203.454,167.354 198.912 C 167.344 194.822,167.576 195.032,163.011 194.988 L 159.375 194.952 158.507 194.156 L 157.639 193.361 157.639 187.699 C 157.639 181.372,157.420 180.523,156.151 181.926 M254.310 182.878 C 253.302 183.180,252.629 183.942,252.309 185.144 C 252.151 185.739,251.872 186.468,251.690 186.762 C 251.508 187.057,251.167 188.030,250.932 188.924 C 250.697 189.818,250.296 190.775,250.041 191.051 C 249.779 191.333,249.507 192.055,249.417 192.708 C 249.330 193.345,249.016 194.243,248.719 194.705 C 248.423 195.166,248.105 195.947,248.012 196.441 C 247.920 196.934,247.611 197.703,247.326 198.148 C 247.040 198.594,246.739 199.439,246.658 200.026 C 246.576 200.613,246.264 201.425,245.964 201.831 C 245.665 202.237,245.348 203.049,245.260 203.635 C 245.172 204.221,244.861 205.079,244.570 205.541 C 244.278 206.003,243.967 206.810,243.878 207.335 C 243.789 207.859,243.464 208.631,243.155 209.050 C 242.846 209.469,242.593 210.132,242.593 210.524 C 242.593 210.915,242.350 211.598,242.054 212.041 C 241.758 212.484,241.341 213.569,241.128 214.450 C 240.914 215.332,240.593 216.217,240.414 216.418 C 240.236 216.618,239.965 217.250,239.813 217.822 C 239.660 218.393,239.286 219.330,238.981 219.903 C 238.676 220.476,238.426 221.217,238.426 221.549 C 238.426 221.881,238.115 222.611,237.736 223.171 C 237.343 223.751,237.044 224.499,237.041 224.908 C 237.036 225.790,236.630 227.007,236.085 227.778 C 235.667 228.367,235.551 229.065,235.613 230.613 L 235.648 231.481 240.162 231.481 C 244.476 231.481,244.676 231.462,244.676 231.032 C 244.676 230.785,244.767 230.526,244.879 230.457 C 244.991 230.388,245.207 229.835,245.359 229.228 C 245.512 228.622,245.837 227.800,246.083 227.403 C 246.328 227.006,246.633 226.129,246.761 225.455 C 246.889 224.781,247.253 223.680,247.571 223.009 C 247.888 222.337,248.148 221.693,248.148 221.578 C 248.148 220.656,248.676 220.602,257.599 220.602 C 267.513 220.602,267.582 220.623,267.591 223.668 C 267.592 223.891,267.905 224.734,268.287 225.543 C 268.669 226.351,268.981 227.177,268.981 227.379 C 268.981 227.581,269.294 228.421,269.676 229.246 C 270.058 230.071,270.370 230.912,270.370 231.114 C 270.370 231.438,270.945 231.481,275.231 231.481 L 280.093 231.481 280.092 230.382 C 280.091 229.671,279.918 228.998,279.601 228.479 C 279.332 228.037,278.961 227.170,278.778 226.551 C 278.594 225.933,278.242 225.097,277.996 224.693 C 277.750 224.289,277.546 223.594,277.544 223.148 C 277.542 222.697,277.271 221.876,276.932 221.296 C 276.597 220.723,276.236 219.737,276.130 219.104 C 276.024 218.471,275.743 217.690,275.505 217.368 C 275.268 217.046,274.938 216.366,274.774 215.856 C 274.609 215.347,274.234 214.514,273.939 214.005 C 273.645 213.495,273.336 212.610,273.253 212.037 C 273.170 211.464,272.922 210.735,272.702 210.417 C 272.153 209.622,271.759 208.412,271.759 207.517 C 271.759 207.106,271.607 206.643,271.421 206.489 C 271.235 206.334,270.869 205.618,270.608 204.898 C 270.347 204.177,269.980 203.315,269.793 202.980 C 269.606 202.646,269.304 201.738,269.123 200.962 C 268.942 200.186,268.578 199.276,268.314 198.940 C 268.049 198.604,267.765 197.813,267.681 197.182 C 267.598 196.552,267.283 195.673,266.982 195.230 C 266.681 194.787,266.435 194.311,266.435 194.174 C 266.435 194.036,266.071 193.117,265.625 192.130 C 265.161 191.102,264.815 189.963,264.815 189.465 C 264.815 188.834,264.656 188.447,264.236 188.058 C 263.918 187.763,263.657 187.366,263.657 187.175 C 263.657 185.946,263.104 184.507,262.286 183.613 L 261.396 182.639 258.186 182.659 C 256.421 182.670,254.677 182.769,254.310 182.878 M57.176 194.244 C 56.730 194.377,56.241 194.589,56.089 194.714 C 55.937 194.840,55.115 195.089,54.261 195.267 C 53.408 195.446,52.542 195.738,52.338 195.917 C 52.134 196.095,51.707 196.318,51.389 196.412 C 49.707 196.908,49.532 199.143,51.040 200.871 C 51.291 201.159,51.608 201.784,51.743 202.260 C 52.058 203.367,52.337 203.356,55.669 202.105 C 61.153 200.047,65.657 200.816,67.263 204.085 C 69.014 207.652,68.087 208.474,63.394 207.517 C 60.370 206.900,54.427 207.499,53.083 208.557 C 52.762 208.809,52.141 209.083,51.704 209.165 C 50.603 209.371,47.456 212.495,47.449 213.387 C 47.447 213.727,47.135 214.463,46.755 215.023 C 45.780 216.462,45.684 221.964,46.614 223.073 C 46.915 223.432,47.241 224.091,47.338 224.537 C 47.434 224.983,47.816 225.712,48.187 226.157 C 49.122 227.282,50.546 228.700,50.742 228.702 C 50.831 228.703,51.189 228.990,51.535 229.340 C 51.882 229.690,52.590 230.086,53.108 230.218 C 53.810 230.398,54.070 230.591,54.125 230.971 C 54.216 231.599,64.352 231.803,64.352 231.177 C 64.352 229.952,67.206 229.740,67.507 230.942 L 67.643 231.481 72.113 231.481 L 76.584 231.481 76.732 230.035 C 76.814 229.239,76.848 222.955,76.808 216.071 L 76.736 203.554 76.081 202.564 C 75.721 202.020,75.372 201.240,75.306 200.831 C 75.148 199.858,72.403 196.879,71.316 196.500 C 70.885 196.350,70.345 196.040,70.117 195.811 C 69.889 195.583,69.305 195.324,68.821 195.236 C 68.336 195.148,67.523 194.859,67.014 194.593 C 65.944 194.034,58.730 193.778,57.176 194.244 M120.949 194.448 C 120.567 194.699,119.721 195.061,119.070 195.251 C 118.418 195.442,117.763 195.744,117.613 195.924 C 116.954 196.719,115.648 196.570,114.603 195.580 C 113.837 194.854,107.953 194.783,107.172 195.490 C 106.499 196.099,106.448 228.866,107.118 230.494 L 107.523 231.480 111.390 231.481 L 115.257 231.481 115.378 230.729 C 115.445 230.315,115.536 224.873,115.580 218.634 C 115.667 206.434,115.675 206.352,116.911 205.025 C 117.159 204.760,117.361 204.462,117.361 204.363 C 117.361 204.265,118.127 203.816,119.064 203.365 C 121.373 202.254,122.478 202.265,124.648 203.422 C 127.882 205.145,128.253 206.671,128.211 218.056 C 128.195 222.321,128.195 227.086,128.211 228.646 L 128.241 231.481 132.376 231.481 L 136.511 231.481 136.658 230.408 C 136.899 228.655,136.826 206.745,136.573 204.730 C 136.279 202.387,135.301 200.040,134.123 198.850 C 131.041 195.738,130.312 195.139,129.603 195.139 C 129.211 195.139,128.562 194.905,128.161 194.618 C 127.099 193.861,122.022 193.741,120.949 194.448 M186.690 194.179 C 186.435 194.262,185.914 194.498,185.532 194.704 C 185.150 194.909,184.442 195.149,183.957 195.237 C 183.472 195.324,182.894 195.573,182.673 195.788 C 182.451 196.004,181.518 196.693,180.600 197.319 C 179.086 198.352,177.083 200.499,177.083 201.089 C 177.083 201.219,176.782 201.704,176.415 202.166 C 176.047 202.629,175.675 203.399,175.587 203.877 C 175.500 204.354,175.182 205.170,174.881 205.688 C 173.496 208.076,173.562 218.916,174.971 220.473 C 175.209 220.735,175.471 221.403,175.555 221.957 C 175.639 222.511,175.965 223.302,176.280 223.715 C 176.594 224.127,176.852 224.608,176.852 224.782 C 176.852 225.241,180.482 228.635,181.154 228.804 C 181.467 228.882,181.974 229.165,182.282 229.433 C 182.590 229.701,183.083 230.039,183.377 230.184 C 183.671 230.329,184.015 230.681,184.141 230.965 C 184.486 231.747,196.528 231.788,196.528 231.007 C 196.528 230.689,196.779 230.427,197.285 230.216 C 197.701 230.042,198.229 229.693,198.457 229.440 C 198.686 229.188,199.205 228.918,199.610 228.840 C 200.380 228.693,202.315 227.035,202.315 226.522 C 202.315 225.984,201.810 224.769,201.587 224.769 C 201.467 224.769,201.086 224.483,200.742 224.135 C 200.397 223.786,199.787 223.322,199.385 223.104 C 198.983 222.886,198.389 222.442,198.065 222.118 C 197.192 221.245,196.223 221.376,194.947 222.541 C 194.446 222.997,194.153 223.032,190.888 223.032 L 187.369 223.032 185.935 222.106 C 185.096 221.564,184.390 220.914,184.233 220.537 C 184.086 220.183,183.667 219.517,183.302 219.058 C 182.022 217.447,182.610 215.812,184.575 215.514 C 185.178 215.422,189.449 215.398,194.067 215.460 C 203.115 215.582,203.852 215.510,204.555 214.437 C 205.004 213.752,204.845 210.525,204.298 209.217 C 204.115 208.778,203.837 207.488,203.681 206.350 C 203.474 204.840,203.257 204.113,202.878 203.654 C 202.592 203.308,202.288 202.608,202.202 202.098 C 201.945 200.580,197.011 195.816,195.195 195.333 C 194.718 195.206,193.813 194.850,193.184 194.542 C 192.026 193.975,188.001 193.750,186.690 194.179 M303.241 194.589 C 302.541 194.907,301.326 195.495,300.543 195.895 C 299.002 196.681,299.009 196.682,297.328 195.604 C 296.287 194.937,290.883 194.745,289.972 195.343 L 289.354 195.749 289.331 212.829 C 289.314 224.933,289.381 229.983,289.561 230.163 C 289.701 230.302,289.815 230.656,289.815 230.949 L 289.815 231.481 293.866 231.481 C 296.094 231.481,297.935 231.455,297.958 231.424 C 297.980 231.392,298.064 226.001,298.144 219.444 C 298.286 207.785,298.407 206.019,299.062 206.019 C 299.157 206.019,299.426 205.597,299.658 205.081 C 300.185 203.912,302.835 202.546,304.576 202.546 C 306.621 202.546,308.618 203.776,309.650 205.671 L 310.532 207.292 310.663 219.329 C 310.735 225.949,310.813 231.392,310.837 231.424 C 310.860 231.455,312.796 231.481,315.139 231.481 L 319.399 231.481 319.572 230.035 C 319.778 228.300,319.776 208.110,319.569 206.404 C 319.342 204.543,318.969 202.979,318.509 201.968 C 318.277 201.458,318.030 200.781,317.961 200.463 C 317.694 199.239,313.263 195.142,312.204 195.140 C 311.977 195.139,311.173 194.878,310.417 194.560 C 308.446 193.731,305.098 193.744,303.241 194.589 M344.249 194.449 C 343.950 194.698,343.294 195.012,342.790 195.148 C 342.286 195.284,341.668 195.601,341.416 195.853 C 340.574 196.695,339.657 196.690,338.778 195.838 L 338.001 195.085 334.563 194.974 C 331.424 194.873,331.077 194.901,330.577 195.306 L 330.030 195.750 330.068 212.516 C 330.090 221.738,330.169 229.777,330.245 230.382 L 330.384 231.481 334.636 231.481 C 336.975 231.481,338.908 231.455,338.931 231.424 C 338.955 231.392,339.041 226.105,339.122 219.676 L 339.271 207.986 339.884 206.379 C 340.438 204.922,341.383 203.704,341.956 203.704 C 342.076 203.704,342.481 203.485,342.856 203.218 C 345.320 201.463,349.911 203.342,350.880 206.503 C 351.475 208.441,351.620 211.106,351.620 220.041 C 351.620 226.193,351.710 229.779,351.879 230.453 L 352.138 231.481 356.046 231.481 C 359.165 231.481,359.954 231.419,359.954 231.170 C 359.954 230.999,360.162 230.670,360.417 230.440 C 361.139 229.786,361.138 207.055,360.415 205.367 C 360.159 204.770,359.801 203.563,359.618 202.684 C 359.434 201.804,359.186 201.023,359.066 200.947 C 358.945 200.872,358.607 200.341,358.313 199.769 C 357.687 198.548,356.058 196.530,355.693 196.524 C 355.554 196.521,354.981 196.209,354.421 195.829 C 353.861 195.449,353.184 195.138,352.917 195.138 C 352.649 195.137,352.014 194.880,351.505 194.566 C 350.228 193.780,345.150 193.698,344.249 194.449 M381.116 194.559 C 380.489 194.877,379.857 195.137,379.711 195.138 C 379.264 195.140,376.830 196.499,376.054 197.180 C 375.651 197.534,374.993 197.959,374.590 198.126 C 374.187 198.293,373.798 198.617,373.725 198.847 C 373.652 199.077,373.284 199.653,372.908 200.127 C 372.531 200.602,372.222 201.092,372.222 201.217 C 372.222 201.341,371.910 201.799,371.528 202.234 C 371.146 202.669,370.833 203.234,370.833 203.490 C 370.833 203.745,370.495 204.601,370.081 205.391 L 369.329 206.829 369.329 212.963 L 369.329 219.097 370.949 222.336 C 372.529 225.493,375.104 228.704,376.057 228.704 C 376.202 228.704,376.731 228.990,377.234 229.340 C 377.738 229.690,378.352 230.090,378.600 230.227 C 378.848 230.365,379.154 230.704,379.279 230.980 C 379.570 231.617,392.130 231.793,392.130 231.159 C 392.130 230.982,392.527 230.678,393.014 230.484 C 393.860 230.145,396.776 228.257,397.370 227.663 C 397.527 227.506,398.182 227.309,398.827 227.223 L 400.000 227.067 400.000 226.149 L 400.000 225.231 399.066 225.231 C 397.940 225.231,397.480 224.951,394.801 222.630 C 392.378 220.532,392.418 220.539,389.966 221.817 C 385.148 224.329,379.264 222.073,378.320 217.352 C 378.096 216.231,378.308 216.209,389.564 216.196 L 400.000 216.185 400.000 209.366 L 400.000 202.546 399.002 202.546 C 397.878 202.546,397.458 202.198,395.947 200.016 C 394.517 197.950,391.528 195.496,390.122 195.232 C 389.718 195.156,388.893 194.844,388.289 194.538 C 386.649 193.708,382.772 193.719,381.116 194.559 M88.221 195.089 C 86.450 195.227,86.574 193.897,86.574 212.799 C 86.574 229.448,86.584 229.811,87.037 230.387 C 87.292 230.711,87.500 231.090,87.500 231.229 C 87.500 231.401,88.693 231.480,91.262 231.477 L 95.023 231.472 95.544 230.329 L 96.065 229.186 96.065 212.872 C 96.065 195.977,96.037 195.469,95.089 195.275 C 94.357 195.125,89.458 194.993,88.221 195.089 M258.156 196.933 C 258.596 197.396,258.861 198.074,259.131 199.421 C 259.335 200.440,259.747 201.742,260.047 202.315 C 260.347 202.888,260.665 203.773,260.753 204.282 C 260.842 204.792,261.043 205.417,261.202 205.671 C 261.360 205.926,261.681 206.759,261.916 207.523 C 262.150 208.287,262.489 209.139,262.669 209.417 C 263.350 210.470,262.449 210.666,257.267 210.595 L 252.662 210.532 252.694 209.314 C 252.712 208.644,252.846 207.951,252.993 207.774 C 253.141 207.596,253.460 206.755,253.704 205.903 C 253.947 205.051,254.358 203.918,254.616 203.385 C 254.874 202.851,255.189 201.872,255.314 201.209 C 255.440 200.545,255.694 199.768,255.878 199.481 C 256.063 199.193,256.386 198.359,256.596 197.627 C 257.024 196.132,257.286 196.016,258.156 196.933 M215.789 201.572 C 213.174 201.664,212.958 201.989,212.981 205.787 C 213.012 210.673,212.373 210.360,222.338 210.366 C 232.156 210.372,231.712 210.589,231.712 205.787 C 231.712 203.699,231.625 202.960,231.308 202.359 L 230.903 201.593 224.306 201.549 C 220.677 201.524,216.845 201.535,215.789 201.572 M190.991 202.340 C 193.558 202.891,196.078 206.409,195.039 207.994 L 194.665 208.565 189.612 208.565 C 183.166 208.565,182.711 208.340,183.884 205.736 C 185.196 202.822,187.688 201.632,190.991 202.340 M387.472 202.853 C 389.851 204.443,390.911 206.423,390.160 207.874 L 389.803 208.565 384.673 208.565 C 378.081 208.565,377.818 208.428,379.164 205.690 C 380.807 202.348,384.718 201.012,387.472 202.853 M65.470 214.896 C 67.068 215.291,67.517 216.838,67.009 220.207 C 66.836 221.359,65.317 222.921,64.376 222.914 C 64.172 222.912,63.212 223.186,62.243 223.521 L 60.481 224.132 58.886 223.514 C 58.009 223.174,57.070 222.804,56.799 222.693 C 55.092 221.988,55.201 216.519,56.946 215.276 C 58.200 214.383,62.605 214.187,65.470 214.896 " stroke="none" fill="#105fa1" fill-rule="evenodd"></path></g></svg>