<?xml version="1.0" encoding="UTF-8" standalone="no"?>
<!-- Created with Inkscape (http://www.inkscape.org/) -->

<svg
   xmlns:dc="http://purl.org/dc/elements/1.1/"
   xmlns:cc="http://creativecommons.org/ns#"
   xmlns:rdf="http://www.w3.org/1999/02/22-rdf-syntax-ns#"
   xmlns:svg="http://www.w3.org/2000/svg"
   xmlns="http://www.w3.org/2000/svg"
   xmlns:sodipodi="http://sodipodi.sourceforge.net/DTD/sodipodi-0.dtd"
   xmlns:inkscape="http://www.inkscape.org/namespaces/inkscape"
   id="svg2"
   version="1.1"
   inkscape:version="0.91 r13725"
   width="300"
   height="300"
   viewBox="0 0 300 300"
   sodipodi:docname="Logo_Université_de_Paris.svg">
  <metadata
     id="metadata8">
    <rdf:RDF>
      <cc:Work
         rdf:about="">
        <dc:format>image/svg+xml</dc:format>
        <dc:type
           rdf:resource="http://purl.org/dc/dcmitype/StillImage" />
        <dc:title></dc:title>
      </cc:Work>
    </rdf:RDF>
  </metadata>
  <defs
     id="defs6" />
  <sodipodi:namedview
     pagecolor="#ffffff"
     bordercolor="#666666"
     borderopacity="1"
     objecttolerance="10"
     gridtolerance="10"
     guidetolerance="10"
     inkscape:pageopacity="0"
     inkscape:pageshadow="2"
     inkscape:window-width="1920"
     inkscape:window-height="1056"
     id="namedview4"
     showgrid="false"
     inkscape:zoom="4.2897834"
     inkscape:cx="147.91271"
     inkscape:cy="111.57504"
     inkscape:window-x="0"
     inkscape:window-y="24"
     inkscape:window-maximized="1"
     inkscape:current-layer="svg2"
     fit-margin-top="0"
     fit-margin-left="0"
     fit-margin-right="0"
     fit-margin-bottom="0" />
  <g
     id="g4365"
     transform="scale(0.68493151,0.68493151)">
    <g
       id="g4357">
      <path
         id="rect4140"
         d="m 0,0 438,0 0,438 -438,0 z"
         style="opacity:1;fill:#8b1538;fill-opacity:1;fill-rule:evenodd;stroke:none;stroke-width:4.03484583;stroke-linecap:round;stroke-linejoin:miter;stroke-miterlimit:4;stroke-dasharray:none;stroke-dashoffset:0;stroke-opacity:1"
         inkscape:connector-curvature="0" />
      <path
         style="opacity:1;fill:#ffffff;fill-opacity:1;fill-rule:evenodd;stroke:none;stroke-width:4.03484583;stroke-linecap:round;stroke-linejoin:miter;stroke-miterlimit:4;stroke-dasharray:none;stroke-dashoffset:0;stroke-opacity:1"
         d="m 0,0 0,0.30078125 219,0 219,0 L 438,0 0,0 Z"
         id="path4334"
         inkscape:connector-curvature="0" />
      <path
         style="opacity:1;fill:#ffffff;fill-opacity:1;fill-rule:evenodd;stroke:none;stroke-width:4.03484583;stroke-linecap:round;stroke-linejoin:miter;stroke-miterlimit:4;stroke-dasharray:none;stroke-dashoffset:0;stroke-opacity:1"
         d="m 224.08106,91.541016 c 0,0 0.20253,8.914294 0,20.359374 -0.77264,43.66143 -6.18494,69.21778 -18.8584,95.09961 -9.6936,17.91487 -18.85718,29.92912 -29.51368,42.22266 l 2.4668,10.49414 c 18.40512,-10.68998 27.57741,-19.35397 46.37368,-19.63752 22.62771,1.28181 36.2744,18.75447 44.85093,38.4793 -11.23631,11.51458 -20.43726,19.87213 -45.82901,19.21743 -28.69549,-0.68134 -45.88006,-19.73034 -51.6101,-43.41731 -4.90735,-20.28609 -4.3369,-70.43469 -3.6605,-114.01844 l 9.21303,0 0,-2.99651 -70.41051,0 0,2.99651 9.79514,0 c 0,45.96773 -1.71125,82.92259 3.99033,106.62458 10.25294,42.62243 36.41354,51.52712 82.33584,57.82226 9.08861,1.24589 25.03531,1.10943 31.7793,0.0156 17.50156,-1.91076 28.54587,-9.54825 38.74942,-18.1261 3.29305,5.63443 7.62478,13.62654 7.62478,13.62654 l 16.79767,0 c -7.39198,-14.02744 -18.73566,-31.69355 -31.57226,-47.22109 -13.08105,-15.45049 -26.7979,-21.15297 -42.05406,-21.41992 -15.25615,-0.26695 -19.36462,2.69873 -28.16079,6.625 22.92114,-34.37698 29.35178,-65.99715 34.17865,-96.53262 2.6061,32.64177 15.34014,72.97855 32.5362,98.53457 13.69744,20.21111 27.72728,39.64548 42.18554,60.01406 l 22.31319,0 L 296.49805,261 c -39.15322,-52.49604 -50.95139,-85.32341 -53.97266,-155.01953 -0.33424,-7.710488 0,-14.439454 0,-14.439454 z m 61.24532,45.545924 0,3.02004 10.17361,0 c 0,86.04284 1.41889,91.24045 -4.39105,105.74979 l 6.6723,8.0827 c 14.55664,-21.92228 11.22677,-28.67061 11.21898,-113.83249 l 10.44086,0 0,-3.02004 z"
         id="path4332"
         inkscape:connector-curvature="0"
         sodipodi:nodetypes="csccccccsccccccssccccczccccccsccccccccccc" />
      <path
         style="opacity:1;fill:#ffffff;fill-opacity:1;fill-rule:evenodd;stroke:none;stroke-width:4.03484583;stroke-linecap:round;stroke-linejoin:miter;stroke-miterlimit:4;stroke-dasharray:none;stroke-dashoffset:0;stroke-opacity:1"
         d="M 0,437.69922 0,438 l 438,0 0,-0.30078 -219,0 -219,0 z"
         id="rect4142"
         inkscape:connector-curvature="0" />
      <path
         sodipodi:type="inkscape:offset"
         inkscape:radius="0.44549233"
         inkscape:original="M 223.84961 347.20703 L 220.63867 351.52148 L 222.39258 351.52148 L 226.13086 347.20703 L 223.84961 347.20703 z M 144.4668 348.14844 L 144.4668 350.82031 L 146.57617 350.82031 L 146.57617 348.14844 L 144.4668 348.14844 z M 201.26562 348.14844 L 201.26562 350.82031 L 203.375 350.82031 L 203.375 348.14844 L 201.26562 348.14844 z M 247.38477 348.14844 L 247.38477 355.09961 C 246.94126 354.33495 246.37977 353.76938 245.69922 353.40234 C 245.02632 353.02766 244.21576 352.83984 243.26758 352.83984 C 241.71532 352.83984 240.44947 353.45852 239.4707 354.69727 C 238.49958 355.93602 238.01563 357.56528 238.01562 359.58398 C 238.01564 361.60268 238.49958 363.23195 239.4707 364.4707 C 240.44947 365.70945 241.71532 366.32814 243.26758 366.32812 C 244.21576 366.32812 245.02632 366.14438 245.69922 365.77734 C 246.37977 365.40266 246.94126 364.83302 247.38477 364.06836 L 247.38477 365.99609 L 249.49609 365.99609 L 249.49609 348.14844 L 247.38477 348.14844 z M 312.98242 348.14844 L 312.98242 350.82031 L 315.0918 350.82031 L 315.0918 348.14844 L 312.98242 348.14844 z M 112.17773 348.87109 L 112.17773 359.56055 C 112.17773 361.79335 112.72897 363.47979 113.83008 364.61914 C 114.93884 365.75848 116.57429 366.32813 118.73828 366.32812 C 120.89462 366.32813 122.52389 365.75848 123.625 364.61914 C 124.73376 363.47979 125.28906 361.79335 125.28906 359.56055 L 125.28906 348.87109 L 122.96094 348.87109 L 122.96094 359.27344 C 122.96094 361.10862 122.62815 362.43165 121.96289 363.24219 C 121.29764 364.04508 120.22172 364.44727 118.73828 364.44727 C 117.24719 364.44727 116.16916 364.04508 115.50391 363.24219 C 114.83865 362.43165 114.50586 361.10862 114.50586 359.27344 L 114.50586 348.87109 L 112.17773 348.87109 z M 275.86523 348.87109 L 275.86523 365.99609 L 278.18164 365.99609 L 278.18164 359.11328 L 281.0957 359.11328 C 283.015 359.11328 284.4646 358.68242 285.44336 357.81836 C 286.42977 356.95429 286.92188 355.67623 286.92188 353.98633 C 286.92187 352.31172 286.42977 351.0418 285.44336 350.17773 C 284.4646 349.30602 283.015 348.87109 281.0957 348.87109 L 275.86523 348.87109 z M 207.74609 349.50195 L 207.74609 353.14844 L 206.19727 353.14844 L 206.19727 354.78906 L 207.74609 354.78906 L 207.74609 361.76367 C 207.74609 363.36946 208.05445 364.47812 208.67383 365.08984 C 209.2932 365.69392 210.41815 365.99609 212.04688 365.99609 L 214.21484 365.99609 L 214.21484 364.22852 L 212.04688 364.22852 C 211.16752 364.22852 210.58158 364.07947 210.29102 363.78125 C 210.00809 363.48304 209.86719 362.81126 209.86719 361.76367 L 209.86719 354.78906 L 214.21484 354.78906 L 214.21484 353.14844 L 209.86719 353.14844 L 209.86719 349.50195 L 207.74609 349.50195 z M 278.18164 350.77539 L 281.0957 350.77539 C 282.17388 350.77539 283.00692 351.05508 283.5957 351.61328 C 284.18449 352.17148 284.47852 352.96168 284.47852 353.98633 C 284.47852 355.01862 284.18449 355.81485 283.5957 356.37305 C 283.00692 356.93125 282.17388 357.20898 281.0957 357.20898 L 278.18164 357.20898 L 278.18164 350.77539 z M 135.74805 352.83984 C 134.8534 352.83984 134.06319 353.03174 133.375 353.41406 C 132.69445 353.7964 132.10233 354.37222 131.59766 355.14453 L 131.59766 353.14844 L 129.47461 353.14844 L 129.47461 365.99609 L 131.59766 365.99609 L 131.59766 358.73438 C 131.59766 357.48032 131.92638 356.4901 132.58398 355.76367 C 133.24159 355.03725 134.13995 354.67383 135.2793 354.67383 C 136.22748 354.67383 136.93802 354.97599 137.41211 355.58008 C 137.8862 356.18416 138.12305 357.09474 138.12305 358.31055 L 138.12305 365.99609 L 140.23438 365.99609 L 140.23438 358.24219 C 140.23436 356.46818 139.85467 355.12674 139.09766 354.2168 C 138.34064 353.2992 137.22385 352.83984 135.74805 352.83984 z M 170.26172 352.83984 C 168.33477 352.83984 166.80145 353.45852 165.66211 354.69727 C 164.53041 355.92837 163.96484 357.59641 163.96484 359.69922 C 163.96484 361.73321 164.56103 363.34619 165.75391 364.53906 C 166.95442 365.73193 168.57962 366.32813 170.62891 366.32812 C 171.44709 366.32812 172.25358 366.24442 173.04883 366.07617 C 173.84407 365.90795 174.61994 365.66296 175.37695 365.3418 L 175.37695 363.3457 C 174.62759 363.74332 173.87208 364.04142 173.10742 364.24023 C 172.35041 364.43905 171.5664 364.53906 170.75586 364.53906 C 169.35653 364.53906 168.26221 364.16131 167.47461 363.4043 C 166.69466 362.63964 166.25973 361.52903 166.16797 360.07617 L 175.87109 360.07617 L 175.87109 359.04492 C 175.87109 357.13327 175.36678 355.62243 174.35742 354.51367 C 173.35572 353.39727 171.98985 352.83984 170.26172 352.83984 z M 185.70117 352.83984 C 184.68418 352.83984 183.81856 353.03174 183.10742 353.41406 C 182.39629 353.78875 181.82046 354.36458 181.37695 355.14453 L 181.37695 353.14844 L 179.25391 353.14844 L 179.25391 365.99609 L 181.37695 365.99609 L 181.37695 359.22852 C 181.37695 357.77566 181.69347 356.66294 182.32812 355.89062 C 182.97045 355.11068 183.88916 354.7207 185.08203 354.7207 C 185.41848 354.7207 185.72277 354.7554 185.99805 354.82422 C 186.28097 354.88542 186.54225 354.98541 186.7793 355.12305 L 186.76758 352.95508 C 186.55347 352.91678 186.35751 352.88825 186.18164 352.87305 C 186.00577 352.85015 185.84646 352.83984 185.70117 352.83984 z M 193.09766 352.83984 C 191.52246 352.83984 190.30759 353.16857 189.45117 353.82617 C 188.59475 354.48378 188.16602 355.41683 188.16602 356.625 C 188.16602 357.61905 188.45792 358.40306 189.03906 358.97656 C 189.62021 359.54241 190.56353 359.96301 191.87109 360.23828 L 192.60547 360.41016 C 193.91304 360.69308 194.75831 360.9871 195.14062 361.29297 C 195.53062 361.59883 195.72461 362.03783 195.72461 362.61133 C 195.72461 363.23071 195.45713 363.71255 194.92188 364.05664 C 194.38662 364.39309 193.62297 364.5625 192.62891 364.5625 C 191.88719 364.5625 191.13787 364.46249 190.38086 364.26367 C 189.62385 364.05721 188.85417 363.75097 188.07422 363.3457 L 188.07422 365.52539 C 188.90005 365.79302 189.68406 365.99111 190.42578 366.12109 C 191.17515 366.25873 191.89384 366.32812 192.58203 366.32812 C 194.2337 366.32812 195.53017 365.981 196.4707 365.28516 C 197.41888 364.58932 197.89258 363.64404 197.89258 362.45117 C 197.89258 361.40359 197.57607 360.58895 196.94141 360.00781 C 196.31438 359.41902 195.25069 358.96373 193.75195 358.64258 L 193.0293 358.48242 C 191.8976 358.23008 191.14421 357.96668 190.76953 357.69141 C 190.39484 357.40848 190.20898 357.02258 190.20898 356.5332 C 190.20898 355.89089 190.46831 355.40905 190.98828 355.08789 C 191.51589 354.76673 192.30398 354.60547 193.35156 354.60547 C 194.03976 354.60547 194.70339 354.68297 195.3457 354.83594 C 195.98802 354.98887 196.60864 355.21757 197.20508 355.52344 L 197.20508 353.52734 C 196.62394 353.29795 195.98897 353.12642 195.30078 353.01172 C 194.61259 352.89702 193.87761 352.83984 193.09766 352.83984 z M 222.38086 352.83984 C 220.45391 352.83984 218.92059 353.45852 217.78125 354.69727 C 216.64955 355.92837 216.08398 357.59641 216.08398 359.69922 C 216.08398 361.73321 216.68018 363.34619 217.87305 364.53906 C 219.07357 365.73193 220.69876 366.32813 222.74805 366.32812 C 223.56623 366.32812 224.37272 366.24442 225.16797 366.07617 C 225.96322 365.90795 226.73908 365.66296 227.49609 365.3418 L 227.49609 363.3457 C 226.74673 363.74332 225.99122 364.04142 225.22656 364.24023 C 224.46955 364.43905 223.68554 364.53906 222.875 364.53906 C 221.47567 364.53906 220.38135 364.16131 219.59375 363.4043 C 218.8138 362.63964 218.37887 361.52903 218.28711 360.07617 L 227.99023 360.07617 L 227.99023 359.04492 C 227.99023 357.13327 227.48592 355.62243 226.47656 354.51367 C 225.47486 353.39727 224.10899 352.83984 222.38086 352.83984 z M 259.22266 352.83984 C 257.29572 352.83984 255.76239 353.45852 254.62305 354.69727 C 253.49135 355.92837 252.92578 357.59641 252.92578 359.69922 C 252.92578 361.73321 253.52198 363.34619 254.71484 364.53906 C 255.91536 365.73193 257.54056 366.32813 259.58984 366.32812 C 260.40803 366.32812 261.21452 366.24442 262.00977 366.07617 C 262.80501 365.90795 263.58088 365.66296 264.33789 365.3418 L 264.33789 363.3457 C 263.58852 363.74332 262.83107 364.04142 262.06641 364.24023 C 261.30939 364.43905 260.52538 364.53906 259.71484 364.53906 C 258.31552 364.53906 257.22315 364.16131 256.43555 363.4043 C 255.65559 362.63964 255.21871 361.52903 255.12695 360.07617 L 264.83203 360.07617 L 264.83203 359.04492 C 264.83203 357.13327 264.32575 355.62243 263.31641 354.51367 C 262.3147 353.39727 260.95079 352.83984 259.22266 352.83984 z M 293.40234 352.83984 C 292.71415 352.83984 292.00768 352.91544 291.28125 353.06836 C 290.55482 353.21365 289.80551 353.43615 289.0332 353.73438 L 289.0332 355.68359 C 289.67552 355.33185 290.34322 355.06845 291.03906 354.89258 C 291.7349 354.7167 292.45147 354.62891 293.18555 354.62891 C 294.34018 354.62891 295.23447 354.89637 295.86914 355.43164 C 296.51145 355.95925 296.83203 356.70857 296.83203 357.67969 L 296.83203 357.88672 L 293.87305 357.88672 C 291.95375 357.88672 290.50823 358.25421 289.53711 358.98828 C 288.57364 359.72235 288.0918 360.81065 288.0918 362.25586 C 288.0918 363.49461 288.47769 364.48484 289.25 365.22656 C 290.02995 365.96064 291.07736 366.32813 292.39258 366.32812 C 293.43251 366.32812 294.31247 366.14438 295.03125 365.77734 C 295.75003 365.40266 296.35029 364.82488 296.83203 364.04492 L 296.83203 365.99609 L 298.94336 365.99609 L 298.94336 358.66602 C 298.94336 356.70848 298.484 355.24862 297.56641 354.28516 C 296.64881 353.32168 295.26046 352.83984 293.40234 352.83984 z M 309.66797 352.83984 C 308.65098 352.83984 307.78535 353.03174 307.07422 353.41406 C 306.36309 353.78875 305.78726 354.36458 305.34375 355.14453 L 305.34375 353.14844 L 303.2207 353.14844 L 303.2207 365.99609 L 305.34375 365.99609 L 305.34375 359.22852 C 305.34375 357.77566 305.66026 356.66294 306.29492 355.89062 C 306.93724 355.11068 307.854 354.7207 309.04688 354.7207 C 309.38333 354.7207 309.68957 354.7554 309.96484 354.82422 C 310.24777 354.88542 310.50905 354.98541 310.74609 355.12305 L 310.73438 352.95508 C 310.52026 352.91678 310.32431 352.88825 310.14844 352.87305 C 309.97256 352.85015 309.81326 352.83984 309.66797 352.83984 z M 323.58008 352.83984 C 322.00488 352.83984 320.79001 353.16857 319.93359 353.82617 C 319.07717 354.48378 318.64844 355.41683 318.64844 356.625 C 318.64844 357.61905 318.93838 358.40306 319.51953 358.97656 C 320.10067 359.54241 321.04595 359.96301 322.35352 360.23828 L 323.08594 360.41016 C 324.39351 360.69308 325.23877 360.9871 325.62109 361.29297 C 326.01107 361.59883 326.20703 362.03783 326.20703 362.61133 C 326.20703 363.23071 325.93956 363.71255 325.4043 364.05664 C 324.86904 364.39309 324.10343 364.5625 323.10938 364.5625 C 322.36766 364.5625 321.61834 364.46249 320.86133 364.26367 C 320.10431 364.05721 319.33659 363.75097 318.55664 363.3457 L 318.55664 365.52539 C 319.38247 365.79302 320.16648 365.99111 320.9082 366.12109 C 321.65757 366.25873 322.37626 366.32812 323.06445 366.32812 C 324.71612 366.32812 326.0126 365.981 326.95312 365.28516 C 327.90132 364.58932 328.375 363.64404 328.375 362.45117 C 328.375 361.40359 328.05654 360.58895 327.42188 360.00781 C 326.79485 359.41902 325.73311 358.96373 324.23438 358.64258 L 323.51172 358.48242 C 322.38003 358.23008 321.62664 357.96668 321.25195 357.69141 C 320.87727 357.40848 320.68945 357.02258 320.68945 356.5332 C 320.68945 355.89089 320.94878 355.40905 321.46875 355.08789 C 321.99636 354.76673 322.78444 354.60547 323.83203 354.60547 C 324.52022 354.60547 325.18581 354.68297 325.82812 354.83594 C 326.47044 354.98887 327.08911 355.21757 327.68555 355.52344 L 327.68555 353.52734 C 327.10441 353.29795 326.4714 353.12642 325.7832 353.01172 C 325.09501 352.89702 324.36003 352.83984 323.58008 352.83984 z M 144.4668 353.14844 L 144.4668 365.99609 L 146.57617 365.99609 L 146.57617 353.14844 L 144.4668 353.14844 z M 149.4668 353.14844 L 154.28516 365.99609 L 157.15234 365.99609 L 161.96875 353.14844 L 159.73242 353.14844 L 155.71875 363.93164 L 151.70312 353.14844 L 149.4668 353.14844 z M 201.26562 353.14844 L 201.26562 365.99609 L 203.375 365.99609 L 203.375 353.14844 L 201.26562 353.14844 z M 312.98242 353.14844 L 312.98242 365.99609 L 315.0918 365.99609 L 315.0918 353.14844 L 312.98242 353.14844 z M 243.7832 354.60547 C 244.89961 354.60547 245.77956 355.04854 246.42188 355.93555 C 247.06419 356.81491 247.38477 358.03172 247.38477 359.58398 C 247.38477 361.13624 247.06418 362.35518 246.42188 363.24219 C 245.77955 364.12155 244.89961 364.5625 243.7832 364.5625 C 242.6668 364.5625 241.7888 364.12155 241.14648 363.24219 C 240.51182 362.35518 240.19336 361.13624 240.19336 359.58398 C 240.19336 358.03172 240.51182 356.81491 241.14648 355.93555 C 241.7888 355.04854 242.6668 354.60547 243.7832 354.60547 z M 170.28516 354.62891 C 171.32509 354.62891 172.15813 354.97392 172.78516 355.66211 C 173.41985 356.35031 173.7445 357.27115 173.75977 358.42578 L 166.23633 358.4375 C 166.34338 357.22934 166.74769 356.29221 167.45117 355.62695 C 168.16231 354.9617 169.10758 354.62891 170.28516 354.62891 z M 222.4043 354.62891 C 223.44423 354.62891 224.27728 354.97392 224.9043 355.66211 C 225.539 356.35031 225.86364 357.27115 225.87891 358.42578 L 218.35547 358.4375 C 218.46252 357.22934 218.86683 356.29221 219.57031 355.62695 C 220.28145 354.9617 221.22672 354.62891 222.4043 354.62891 z M 259.24609 354.62891 C 260.28603 354.62891 261.11907 354.97392 261.74609 355.66211 C 262.38079 356.35031 262.70544 357.27115 262.7207 358.42578 L 255.19727 358.4375 C 255.30432 357.22934 255.70862 356.29221 256.41211 355.62695 C 257.12324 354.9617 258.06852 354.62891 259.24609 354.62891 z M 294.73242 359.53711 L 296.83203 359.53711 L 296.83203 360.00781 C 296.83203 361.3842 296.47677 362.48879 295.76562 363.32227 C 295.06214 364.1481 294.12501 364.5625 292.95508 364.5625 C 292.1063 364.5625 291.43453 364.34406 290.9375 363.9082 C 290.44811 363.4647 290.20312 362.86851 290.20312 362.11914 C 290.20312 361.17861 290.53184 360.51302 291.18945 360.12305 C 291.84706 359.73307 293.02724 359.53711 294.73242 359.53711 z "
         style="font-style:normal;font-weight:normal;font-size:medium;line-height:125%;font-family:sans-serif;letter-spacing:0px;word-spacing:0px;fill:#ffffff;fill-opacity:1;stroke:none;stroke-width:1px;stroke-linecap:butt;stroke-linejoin:miter;stroke-opacity:1"
         id="path4207"
         d="m 223.84961,346.76172 a 0.44553688,0.44553688 0 0 0 -0.35742,0.17969 l -3.21094,4.31445 a 0.44553688,0.44553688 0 0 0 0.35742,0.71094 l 1.75391,0 a 0.44553688,0.44553688 0 0 0 0.33594,-0.1543 l 3.73828,-4.31445 a 0.44553688,0.44553688 0 0 0 -0.33594,-0.73633 l -2.28125,0 z m -79.38281,0.9414 a 0.44553688,0.44553688 0 0 0 -0.44532,0.44532 l 0,2.67187 a 0.44553688,0.44553688 0 0 0 0.44532,0.44531 l 2.10937,0 a 0.44553688,0.44553688 0 0 0 0.44531,-0.44531 l 0,-2.67187 a 0.44553688,0.44553688 0 0 0 -0.44531,-0.44532 l -2.10937,0 z m 56.79882,0 a 0.44553688,0.44553688 0 0 0 -0.44531,0.44532 l 0,2.67187 a 0.44553688,0.44553688 0 0 0 0.44531,0.44531 l 2.10938,0 a 0.44553688,0.44553688 0 0 0 0.44531,-0.44531 l 0,-2.67187 a 0.44553688,0.44553688 0 0 0 -0.44531,-0.44532 l -2.10938,0 z m 46.11915,0 a 0.44553688,0.44553688 0 0 0 -0.44532,0.44532 l 0,5.63476 c -0.30733,-0.30844 -0.64855,-0.56655 -1.02343,-0.76953 -5.3e-4,-2.9e-4 -0.001,2.9e-4 -0.002,0 -0.75014,-0.41728 -1.64017,-0.61914 -2.64648,-0.61914 -1.67063,0 -3.09661,0.6986 -4.14649,2.02735 a 0.44553688,0.44553688 0 0 0 -0.002,0 c -1.0438,1.33145 -1.54882,3.07221 -1.54883,5.1621 2e-5,2.0899 0.50503,3.83065 1.54883,5.16211 a 0.44553688,0.44553688 0 0 0 0.002,0 c 1.04988,1.32874 2.47585,2.02737 4.14649,2.02735 1.00573,0 1.89447,-0.19634 2.64453,-0.60547 a 0.44553688,0.44553688 0 0 0 0.002,0 c 0.37564,-0.20681 0.71746,-0.46843 1.02539,-0.7793 l 0,0.60742 a 0.44553688,0.44553688 0 0 0 0.44532,0.44532 l 2.11132,0 a 0.44553688,0.44553688 0 0 0 0.44532,-0.44532 l 0,-17.84765 a 0.44553688,0.44553688 0 0 0 -0.44532,-0.44532 l -2.11132,0 z m 65.59765,0 a 0.44553688,0.44553688 0 0 0 -0.44531,0.44532 l 0,2.67187 a 0.44553688,0.44553688 0 0 0 0.44531,0.44531 l 2.10938,0 a 0.44553688,0.44553688 0 0 0 0.44531,-0.44531 l 0,-2.67187 a 0.44553688,0.44553688 0 0 0 -0.44531,-0.44532 l -2.10938,0 z m -200.80469,0.72266 a 0.44553688,0.44553688 0 0 0 -0.44531,0.44531 l 0,10.68946 c 0,2.30612 0.57521,4.12525 1.77735,5.36914 a 0.44553688,0.44553688 0 0 0 0.002,0 c 1.2097,1.24307 2.98439,1.84376 5.22656,1.84375 2.23414,1e-5 4.00295,-0.60061 5.20508,-1.84375 1.21015,-1.24354 1.79101,-3.06248 1.79102,-5.36914 l 0,-10.68946 a 0.44553688,0.44553688 0 0 0 -0.44532,-0.44531 l -2.32812,0 a 0.44553688,0.44553688 0 0 0 -0.44532,0.44531 l 0,10.40235 c 0,1.78032 -0.33639,3.00028 -0.89648,3.68359 -0.56132,0.67746 -1.47794,1.04492 -2.88086,1.04492 -1.41098,0 -2.3296,-0.36782 -2.89062,-1.04492 -0.56009,-0.68331 -0.89649,-1.90327 -0.89649,-3.68359 l 0,-10.40235 a 0.44553688,0.44553688 0 0 0 -0.44531,-0.44531 l -2.32813,0 z m 163.6875,0 a 0.44553688,0.44553688 0 0 0 -0.44531,0.44531 l 0,17.125 a 0.44553688,0.44553688 0 0 0 0.44531,0.44532 l 2.31641,0 a 0.44553688,0.44553688 0 0 0 0.44531,-0.44532 l 0,-6.4375 2.46875,0 c 1.98475,0 3.55342,-0.44566 4.64063,-1.40429 l 0.002,-0.002 c 1.09354,-0.95913 1.62891,-2.39076 1.62891,-4.16601 -10e-6,-1.75963 -0.53587,-3.18243 -1.62696,-4.14063 -1.08694,-0.96806 -2.65793,-1.41992 -4.64453,-1.41992 l -5.23047,0 z m -68.11914,0.63086 a 0.44553688,0.44553688 0 0 0 -0.44531,0.44531 l 0,3.20117 -1.10351,0 a 0.44553688,0.44553688 0 0 0 -0.44532,0.44532 l 0,1.64062 a 0.44553688,0.44553688 0 0 0 0.44532,0.44532 l 1.10351,0 0,6.52929 c 0,1.66282 0.30229,2.8937 1.06055,3.64258 a 0.44553688,0.44553688 0 0 0 0.002,0.002 c 0.75924,0.74049 1.99977,1.03321 3.6836,1.03321 l 2.16796,0 a 0.44553688,0.44553688 0 0 0 0.44532,-0.44532 l 0,-1.76757 a 0.44553688,0.44553688 0 0 0 -0.44532,-0.44532 l -2.16796,0 c -0.82543,0 -1.2978,-0.17386 -1.4336,-0.31054 -0.10397,-0.11087 -0.30078,-0.70302 -0.30078,-1.70899 l 0,-6.52929 3.90234,0 a 0.44553688,0.44553688 0 0 0 0.44532,-0.44532 l 0,-1.64062 a 0.44553688,0.44553688 0 0 0 -0.44532,-0.44532 l -3.90234,0 0,-3.20117 a 0.44553688,0.44553688 0 0 0 -0.44531,-0.44531 l -2.1211,0 z m 70.88086,2.16406 2.46875,0 c 1.00114,0 1.70292,0.25183 2.19336,0.7168 0.49019,0.46472 0.74414,1.1094 0.74414,2.04883 0,0.94769 -0.25511,1.59888 -0.74414,2.0625 -0.49006,0.46461 -1.19168,0.71484 -2.19336,0.71484 l -2.46875,0 0,-5.54297 z m -142.8789,1.17383 c -0.95836,0 -1.83042,0.20897 -2.58985,0.63086 a 0.44553688,0.44553688 0 0 0 -0.002,0 c -0.40443,0.22722 -0.77077,0.52712 -1.11328,0.87305 l 0,-0.75 a 0.44553688,0.44553688 0 0 0 -0.44531,-0.44532 l -2.12305,0 a 0.44553688,0.44553688 0 0 0 -0.44531,0.44532 l 0,12.84765 a 0.44553688,0.44553688 0 0 0 0.44531,0.44532 l 2.12305,0 a 0.44553688,0.44553688 0 0 0 0.44531,-0.44532 l 0,-7.26171 c 0,-1.17622 0.2991,-2.04002 0.87109,-2.67188 0.57175,-0.63157 1.32062,-0.94336 2.36524,-0.94336 0.85353,0 1.39803,0.24554 1.7832,0.73633 0.38434,0.48972 0.61523,1.29712 0.61523,2.45508 l 0,7.68554 a 0.44553688,0.44553688 0 0 0 0.44532,0.44532 l 2.11133,0 a 0.44553688,0.44553688 0 0 0 0.44531,-0.44532 l 0,-7.7539 c -2e-5,-1.83641 -0.39156,-3.28957 -1.23828,-4.3086 l -0.002,-0.002 c -0.84745,-1.02576 -2.12426,-1.53711 -3.6914,-1.53711 z m 34.51367,0 c -2.02231,0 -3.70361,0.67102 -4.92774,2.00195 -1.21733,1.32426 -1.81445,3.12005 -1.81445,5.30274 0,2.12104 0.63754,3.87192 1.91992,5.1543 a 0.44553688,0.44553688 0 0 0 0,0.002 c 1.29047,1.28225 3.05376,1.91798 5.18946,1.91797 0.84856,0 1.68606,-0.087 2.51171,-0.26172 0.82353,-0.1742 1.62739,-0.42768 2.41016,-0.75977 a 0.44553688,0.44553688 0 0 0 0.27149,-0.41015 l 0,-1.9961 a 0.44553688,0.44553688 0 0 0 -0.6543,-0.39258 c -0.72128,0.38273 -1.44301,0.66597 -2.17188,0.85547 a 0.44553688,0.44553688 0 0 0 -0.002,0 c -0.71942,0.18895 -1.46439,0.28516 -2.23828,0.28516 -1.31719,0 -2.27664,-0.3443 -2.96875,-1.00781 -0.5943,-0.58265 -0.93071,-1.45721 -1.07813,-2.56446 l 9.16211,0 a 0.44553688,0.44553688 0 0 0 0.44532,-0.44531 l 0,-1.03125 c 0,-1.98824 -0.53366,-3.62531 -1.62696,-4.82812 -1.0869,-1.21137 -2.6038,-1.82227 -4.42773,-1.82227 z m 15.43945,0 c -1.07134,0 -2.01236,0.20209 -2.80078,0.625 -0.39773,0.20956 -0.75751,0.47898 -1.07812,0.80078 l 0,-0.67187 a 0.44553688,0.44553688 0 0 0 -0.44532,-0.44532 l -2.12304,0 a 0.44553688,0.44553688 0 0 0 -0.44532,0.44532 l 0,12.84765 a 0.44553688,0.44553688 0 0 0 0.44532,0.44532 l 2.12304,0 a 0.44553688,0.44553688 0 0 0 0.44532,-0.44532 l 0,-6.76757 c 0,-1.38816 0.30208,-2.3884 0.84961,-3.05469 0.55613,-0.67529 1.31438,-1.00781 2.41015,-1.00781 0.30582,0 0.57407,0.0312 0.80859,0.0898 a 0.44553688,0.44553688 0 0 0 0.0137,0.004 c 0.24031,0.052 0.45525,0.13474 0.65039,0.24804 a 0.44553688,0.44553688 0 0 0 0.66992,-0.38672 l -0.0117,-2.16797 a 0.44553688,0.44553688 0 0 0 -0.36719,-0.4375 c -0.2165,-0.0387 -0.41696,-0.0668 -0.60742,-0.084 -0.19305,-0.0251 -0.37074,-0.0371 -0.53711,-0.0371 z m 7.39649,0 c -1.63718,0 -2.95702,0.34026 -3.91797,1.07813 -0.96091,0.73784 -1.45899,1.83878 -1.45899,3.15234 0,1.08126 0.33333,2.00428 1.00586,2.66797 a 0.44553688,0.44553688 0 0 0 0.002,0.002 c 0.67473,0.65697 1.69597,1.09369 3.05078,1.37891 l 0.72461,0.16992 a 0.44553688,0.44553688 0 0 0 0.008,0.002 c 1.284,0.27782 2.11063,0.60216 2.35156,0.79492 a 0.44553688,0.44553688 0 0 0 0.002,0.002 c 0.28357,0.22239 0.41407,0.49571 0.41407,0.96875 0,0.49112 -0.16475,0.79201 -0.59766,1.07031 -0.43084,0.26955 -1.11158,0.43555 -2.05273,0.43555 -0.70168,0 -1.41212,-0.0954 -2.13477,-0.28516 -0.72182,-0.1972 -1.4612,-0.48926 -2.21484,-0.88086 a 0.44553688,0.44553688 0 0 0 -0.65039,0.39453 l 0,2.17969 a 0.44553688,0.44553688 0 0 0 0.30859,0.42383 c 0.84172,0.27278 1.64443,0.47532 2.4082,0.60937 0.77298,0.14198 1.5182,0.21485 2.23633,0.21485 1.71298,0 3.11161,-0.35981 4.15235,-1.12891 l 0.002,-0.002 c 1.04475,-0.76777 1.60156,-1.88158 1.60156,-3.19141 0,-1.1352 -0.36134,-2.09639 -1.0918,-2.76758 l -0.002,-0.002 c -0.72651,-0.68122 -1.85793,-1.14473 -3.39648,-1.47461 l -0.002,0 -0.71875,-0.16015 -0.002,0 c -1.10686,-0.247 -1.83768,-0.52816 -2.0918,-0.71485 -0.27202,-0.20707 -0.3789,-0.42456 -0.3789,-0.79883 0,-0.52122 0.1616,-0.81355 0.5664,-1.06445 l 0.002,-0.002 c 0.41613,-0.25256 1.12843,-0.41602 2.1289,-0.41602 0.65476,0 1.2826,0.074 1.89063,0.21875 0.60786,0.14473 1.19475,0.36064 1.75976,0.65039 a 0.44553688,0.44553688 0 0 0 0.64844,-0.39648 l 0,-1.9961 a 0.44553688,0.44553688 0 0 0 -0.28125,-0.41406 c -0.61368,-0.24223 -1.28069,-0.42178 -1.99609,-0.54101 -0.71525,-0.11921 -1.47367,-0.17774 -2.27539,-0.17774 z m 29.2832,0 c -2.02231,0 -3.70361,0.67102 -4.92774,2.00195 -1.21733,1.32426 -1.81445,3.12005 -1.81445,5.30274 0,2.12104 0.63755,3.87192 1.91992,5.1543 a 0.44553688,0.44553688 0 0 0 0,0.002 c 1.29047,1.28225 3.05376,1.91798 5.18946,1.91797 0.84856,0 1.68607,-0.087 2.51172,-0.26172 0.82353,-0.1742 1.62738,-0.42768 2.41015,-0.75977 a 0.44553688,0.44553688 0 0 0 0.27149,-0.41015 l 0,-1.9961 a 0.44553688,0.44553688 0 0 0 -0.6543,-0.39258 c -0.72128,0.38273 -1.44301,0.66597 -2.17188,0.85547 a 0.44553688,0.44553688 0 0 0 -0.002,0 c -0.71942,0.18895 -1.46439,0.28516 -2.23828,0.28516 -1.31719,0 -2.27664,-0.3443 -2.96875,-1.00781 -0.5943,-0.58265 -0.93071,-1.45721 -1.07813,-2.56446 l 9.16211,0 a 0.44553688,0.44553688 0 0 0 0.44532,-0.44531 l 0,-1.03125 c 0,-1.98824 -0.53366,-3.62531 -1.62696,-4.82812 -1.0869,-1.21137 -2.6038,-1.82227 -4.42773,-1.82227 z m 36.8418,0 c -2.0223,0 -3.70361,0.67102 -4.92774,2.00195 -1.21734,1.32426 -1.81445,3.12005 -1.81445,5.30274 0,2.12104 0.63756,3.87192 1.91992,5.1543 a 0.44553688,0.44553688 0 0 0 0,0.002 c 1.29047,1.28225 3.05377,1.91798 5.18945,1.91797 0.84858,0 1.68607,-0.087 2.51172,-0.26172 0.82352,-0.1742 1.62739,-0.42768 2.41016,-0.75977 a 0.44553688,0.44553688 0 0 0 0.27148,-0.41015 l 0,-1.9961 a 0.44553688,0.44553688 0 0 0 -0.65429,-0.39258 c -0.72102,0.38258 -1.44479,0.66592 -2.17383,0.85547 a 0.44553688,0.44553688 0 0 0 -0.002,0 c -0.71942,0.18895 -1.46438,0.28516 -2.23828,0.28516 -1.31717,0 -2.27443,-0.34405 -2.96679,-1.00781 -0.59456,-0.58289 -0.93235,-1.45738 -1.08008,-2.56446 l 9.16406,0 a 0.44553688,0.44553688 0 0 0 0.44531,-0.44531 l 0,-1.03125 c 0,-1.98854 -0.53582,-3.62552 -1.6289,-4.82812 -1.08673,-1.21115 -2.60185,-1.82227 -4.42578,-1.82227 z m 34.17968,0 c -0.72081,0 -1.45845,0.0795 -2.21289,0.23828 -0.75315,0.15091 -1.52463,0.3798 -2.3164,0.68555 a 0.44553688,0.44553688 0 0 0 -0.28516,0.41602 l 0,1.94921 a 0.44553688,0.44553688 0 0 0 0.66016,0.39063 c 0.61042,-0.33427 1.24136,-0.58344 1.90039,-0.75 0.65954,-0.16671 1.33855,-0.25 2.03711,-0.25 1.08583,0 1.86356,0.24781 2.39648,0.69726 a 0.44553688,0.44553688 0 0 0 0.004,0.004 c 0.48097,0.39508 0.70765,0.93942 0.75781,1.66602 l -2.4707,0 c -1.97617,0 -3.52176,0.37223 -4.60547,1.1914 a 0.44553688,0.44553688 0 0 0 0,0.002 c -1.07536,0.81931 -1.6211,2.07686 -1.6211,3.62109 0,1.33127 0.43322,2.46539 1.29493,3.29297 a 0.44553688,0.44553688 0 0 0 0.004,0.002 c 0.87087,0.81965 2.04906,1.22267 3.44727,1.22266 1.0924,0 2.04549,-0.19298 2.8418,-0.59961 a 0.44553688,0.44553688 0 0 0 0.002,-0.002 c 0.42412,-0.22109 0.80387,-0.51574 1.15039,-0.86133 l 0,0.68554 a 0.44553688,0.44553688 0 0 0 0.44531,0.44532 l 2.11133,0 a 0.44553688,0.44553688 0 0 0 0.44531,-0.44532 l 0,-7.33007 c 0,-2.02724 -0.47862,-3.61507 -1.5,-4.6875 -1.02121,-1.07228 -2.55119,-1.58399 -4.48633,-1.58399 z m 16.26563,0 c -1.07134,0 -2.01237,0.20209 -2.80078,0.625 -0.39773,0.20956 -0.75752,0.47898 -1.07813,0.80078 l 0,-0.67187 a 0.44553688,0.44553688 0 0 0 -0.44531,-0.44532 l -2.12305,0 a 0.44553688,0.44553688 0 0 0 -0.44531,0.44532 l 0,12.84765 a 0.44553688,0.44553688 0 0 0 0.44531,0.44532 l 2.12305,0 a 0.44553688,0.44553688 0 0 0 0.44531,-0.44532 l 0,-6.76757 c 0,-1.38816 0.30208,-2.3884 0.84961,-3.05469 0.55641,-0.67562 1.31242,-1.00781 2.40821,-1.00781 0.30581,0 0.57651,0.0313 0.81054,0.0898 a 0.44553688,0.44553688 0 0 0 0.0137,0.004 c 0.24032,0.052 0.45527,0.13474 0.65039,0.24804 a 0.44553688,0.44553688 0 0 0 0.66993,-0.38672 l -0.0117,-2.16797 a 0.44553688,0.44553688 0 0 0 -0.36719,-0.4375 c -0.2165,-0.0387 -0.41696,-0.0668 -0.60742,-0.084 -0.19306,-0.0251 -0.37075,-0.0371 -0.53711,-0.0371 z m 13.91211,0 c -1.63718,0 -2.95702,0.34026 -3.91797,1.07813 -0.96091,0.73784 -1.45899,1.83878 -1.45899,3.15234 0,1.08068 0.33101,2.00392 1.00391,2.66797 a 0.44553688,0.44553688 0 0 0 0.002,0.002 c 0.67509,0.65732 1.69801,1.09371 3.05274,1.37891 l 0.72266,0.16992 a 0.44553688,0.44553688 0 0 0 0.008,0.002 c 1.284,0.27782 2.11061,0.60215 2.35156,0.79492 a 0.44553688,0.44553688 0 0 0 0.002,0.002 c 0.28413,0.22284 0.41602,0.49673 0.41602,0.96875 0,0.49113 -0.16474,0.79201 -0.59766,1.07031 -0.43044,0.26929 -1.11354,0.43555 -2.05468,0.43555 -0.70168,0 -1.41212,-0.0954 -2.13477,-0.28516 -0.72163,-0.19714 -1.45898,-0.48912 -2.21289,-0.88086 a 0.44553688,0.44553688 0 0 0 -0.65039,0.39453 l 0,2.17969 a 0.44553688,0.44553688 0 0 0 0.30859,0.42383 c 0.84172,0.27278 1.64444,0.47532 2.4082,0.60937 0.77299,0.14198 1.5182,0.21485 2.23633,0.21485 1.71299,0 3.11162,-0.3598 4.15235,-1.12891 l 0.002,-0.002 c 1.04478,-0.76777 1.60156,-1.88159 1.60156,-3.19141 0,-1.13576 -0.36362,-2.09669 -1.09375,-2.76758 l -0.002,-0.002 c -0.72617,-0.68091 -1.85592,-1.14471 -3.39453,-1.47461 l -0.002,0 -0.71874,-0.16015 -0.002,0 c -1.10685,-0.247 -1.83767,-0.52815 -2.0918,-0.71485 -0.27262,-0.20753 -0.38085,-0.42573 -0.38085,-0.79883 0,-0.52122 0.1616,-0.81355 0.5664,-1.06445 l 0.002,-0.002 c 0.41614,-0.25256 1.12843,-0.41602 2.12891,-0.41602 0.65475,0 1.28475,0.074 1.89258,0.21875 0.60767,0.14468 1.19244,0.36046 1.75781,0.65039 a 0.44553688,0.44553688 0 0 0 0.64844,-0.39648 l 0,-1.9961 a 0.44553688,0.44553688 0 0 0 -0.28125,-0.41406 c -0.61336,-0.24211 -1.27859,-0.42176 -1.99414,-0.54101 -0.71524,-0.11921 -1.47367,-0.17774 -2.27539,-0.17774 z m -179.11328,0.30859 a 0.44553688,0.44553688 0 0 0 -0.44532,0.44532 l 0,12.84765 a 0.44553688,0.44553688 0 0 0 0.44532,0.44532 l 2.10937,0 a 0.44553688,0.44553688 0 0 0 0.44531,-0.44532 l 0,-12.84765 a 0.44553688,0.44553688 0 0 0 -0.44531,-0.44532 l -2.10937,0 z m 5,0 a 0.44553688,0.44553688 0 0 0 -0.41797,0.60157 l 4.81836,12.84765 a 0.44553688,0.44553688 0 0 0 0.41797,0.28907 l 2.86718,0 a 0.44553688,0.44553688 0 0 0 0.41797,-0.28907 l 4.81641,-12.84765 a 0.44553688,0.44553688 0 0 0 -0.41797,-0.60157 l -2.23633,0 a 0.44553688,0.44553688 0 0 0 -0.41797,0.28907 l -3.5957,9.66015 -3.59766,-9.66015 a 0.44553688,0.44553688 0 0 0 -0.41797,-0.28907 l -2.23632,0 z m 51.79882,0 a 0.44553688,0.44553688 0 0 0 -0.44531,0.44532 l 0,12.84765 a 0.44553688,0.44553688 0 0 0 0.44531,0.44532 l 2.10938,0 a 0.44553688,0.44553688 0 0 0 0.44531,-0.44532 l 0,-12.84765 a 0.44553688,0.44553688 0 0 0 -0.44531,-0.44532 l -2.10938,0 z m 111.7168,0 a 0.44553688,0.44553688 0 0 0 -0.44531,0.44532 l 0,12.84765 a 0.44553688,0.44553688 0 0 0 0.44531,0.44532 l 2.10938,0 a 0.44553688,0.44553688 0 0 0 0.44531,-0.44532 l 0,-12.84765 a 0.44553688,0.44553688 0 0 0 -0.44531,-0.44532 l -2.10938,0 z m -69.19922,2.34766 c 0.99854,0 1.70705,0.35894 2.27735,1.14649 a 0.44553688,0.44553688 0 0 0 0.002,0.002 c 0.5685,0.7783 0.87695,1.89384 0.87695,3.38476 0,1.49093 -0.30901,2.60947 -0.8789,3.39649 -0.56956,0.77843 -1.2793,1.13672 -2.27735,1.13672 -0.99909,0 -1.70724,-0.35818 -2.27734,-1.13867 -0.56182,-0.78712 -0.86719,-1.90527 -0.86719,-3.39454 0,-1.49048 0.30784,-2.6082 0.86914,-3.38671 0.57055,-0.7879 1.27686,-1.14649 2.27539,-1.14649 z m -73.49804,0.0234 c 0.94139,0 1.62526,0.29089 2.16992,0.88867 a 0.44553688,0.44553688 0 0 0 0.002,0.002 c 0.46361,0.5027 0.69933,1.18617 0.78516,2.01563 l -6.44922,0.0117 c 0.15582,-0.85907 0.45235,-1.55637 0.96484,-2.04102 0.6212,-0.58012 1.43485,-0.87695 2.52735,-0.87695 z m 52.11914,0 c 0.9414,0 1.62528,0.2909 2.16992,0.88867 a 0.44553688,0.44553688 0 0 0 0.002,0.002 c 0.46362,0.5027 0.69933,1.18616 0.78516,2.01563 l -6.44922,0.0117 c 0.15582,-0.85907 0.45235,-1.55637 0.96484,-2.04102 0.6212,-0.58012 1.43485,-0.87695 2.52735,-0.87695 z m 36.84179,0 c 0.94141,0 1.62528,0.29089 2.16993,0.88867 a 0.44553688,0.44553688 0 0 0 0.002,0.002 c 0.46362,0.5027 0.69933,1.18617 0.78515,2.01563 l -6.44921,0.0117 c 0.15581,-0.85907 0.45234,-1.55637 0.96484,-2.04102 0.62118,-0.58012 1.43486,-0.87695 2.52734,-0.87695 z m 35.48633,4.9082 1.6543,0 0,0.0254 c 0,1.29974 -0.32838,2.28403 -0.96094,3.02539 -0.62454,0.73316 -1.40597,1.08399 -2.4707,1.08399 -0.76908,0 -1.31633,-0.18862 -1.71875,-0.53907 -4.2e-4,-3.7e-4 4.1e-4,-0.002 0,-0.002 -0.39616,-0.35958 -0.58789,-0.80544 -0.58789,-1.45703 0,-0.83673 0.24523,-1.30352 0.76758,-1.61328 0.51279,-0.3041 1.64535,-0.52344 3.3164,-0.52344 z"
         transform="translate(1.4579623,-20.130895)" />
    </g>
  </g>
</svg>
