<svg id="svg" version="1.1" xmlns="http://www.w3.org/2000/svg" xmlns:xlink="http://www.w3.org/1999/xlink" width="400" height="201.7331022530329" viewBox="0, 0, 400,201.7331022530329"><g id="svgg"><path id="path0" d="M49.170 2.371 C 48.824 3.705,48.692 4.189,47.836 7.265 C 47.604 8.098,47.327 9.142,47.220 9.586 C 47.113 10.030,46.893 10.848,46.730 11.403 C 46.351 12.698,45.734 14.905,45.320 16.448 C 44.792 18.414,44.397 19.819,44.101 20.787 C 43.948 21.287,43.759 22.059,43.681 22.503 C 43.603 22.947,43.469 23.401,43.382 23.512 C 43.295 23.623,43.129 24.168,43.013 24.723 C 42.897 25.277,42.624 26.367,42.407 27.144 C 41.973 28.696,40.508 33.968,40.024 35.721 C 39.855 36.332,39.590 37.308,39.435 37.891 C 38.985 39.578,38.615 40.931,38.040 42.987 C 37.745 44.041,37.368 45.404,37.201 46.014 C 37.034 46.625,36.765 47.578,36.602 48.133 C 36.440 48.688,36.183 49.642,36.031 50.252 C 35.753 51.370,35.560 52.089,35.011 54.036 C 34.468 55.962,34.128 57.196,33.690 58.829 C 33.288 60.325,32.929 61.636,32.181 64.329 C 32.019 64.912,31.755 65.865,31.593 66.448 C 31.431 67.031,31.122 68.143,30.906 68.920 C 30.691 69.697,30.181 71.559,29.775 73.058 C 29.368 74.556,28.908 76.236,28.751 76.791 C 28.595 77.346,28.333 78.300,28.169 78.910 C 28.005 79.521,27.695 80.656,27.480 81.433 C 27.265 82.210,26.943 83.391,26.764 84.057 C 26.585 84.723,26.131 86.357,25.757 87.689 C 25.382 89.021,24.972 90.520,24.847 91.019 C 24.722 91.519,24.434 92.563,24.208 93.340 C 23.982 94.117,23.673 95.252,23.523 95.863 C 23.372 96.473,22.928 98.108,22.536 99.495 C 22.143 100.883,21.724 102.381,21.603 102.825 C 21.258 104.097,20.782 105.771,20.484 106.761 C 20.333 107.260,20.147 108.032,20.069 108.476 C 19.991 108.920,19.859 109.374,19.775 109.485 C 19.691 109.596,19.564 110.005,19.492 110.394 C 19.370 111.054,19.227 111.596,18.470 114.279 C 18.305 114.861,17.804 116.700,17.356 118.365 C 16.908 120.030,16.417 121.801,16.265 122.301 C 16.114 122.800,15.832 123.799,15.641 124.521 C 15.449 125.242,15.130 126.423,14.931 127.144 C 14.733 127.866,14.233 129.682,13.821 131.181 C 13.409 132.679,12.948 134.359,12.798 134.914 C 12.647 135.469,12.335 136.604,12.104 137.437 C 11.874 138.269,11.551 139.450,11.387 140.061 C 11.223 140.671,10.958 141.625,10.798 142.180 C 10.638 142.735,10.179 144.415,9.777 145.913 C 9.064 148.575,8.583 150.332,7.955 152.573 C 7.270 155.016,7.062 155.767,6.641 157.316 C 6.400 158.204,6.028 159.566,5.816 160.343 C 5.451 161.676,5.250 162.404,4.551 164.934 C 4.389 165.517,4.072 166.621,3.845 167.387 C 3.238 169.438,2.894 169.324,9.699 169.324 C 16.389 169.324,16.379 169.326,16.714 167.982 C 16.848 167.443,17.132 166.367,17.346 165.590 C 17.559 164.813,17.917 163.496,18.140 162.664 C 18.364 161.831,18.692 160.651,18.869 160.040 C 19.047 159.430,19.316 158.431,19.468 157.820 C 19.757 156.659,19.980 155.835,20.506 153.986 C 20.906 152.580,21.262 151.283,21.810 149.243 C 22.048 148.355,22.420 146.993,22.635 146.216 C 22.851 145.439,23.149 144.349,23.298 143.794 C 23.894 141.568,24.292 140.099,24.638 138.850 C 24.838 138.128,25.328 136.312,25.727 134.813 C 26.126 133.315,26.578 131.680,26.731 131.181 C 26.885 130.681,27.070 130.001,27.144 129.668 C 27.217 129.336,27.372 128.950,27.488 128.810 C 27.654 128.610,32.317 128.557,49.825 128.557 L 71.951 128.557 72.232 129.007 C 72.387 129.254,72.689 130.140,72.904 130.975 C 73.462 133.139,73.774 134.299,74.261 136.024 C 74.496 136.857,74.773 137.925,74.876 138.398 C 74.980 138.872,75.146 139.417,75.245 139.609 C 75.345 139.802,75.490 140.323,75.568 140.767 C 75.646 141.211,75.837 141.983,75.992 142.482 C 76.294 143.455,76.858 145.463,77.382 147.427 C 77.560 148.093,77.840 149.059,78.005 149.573 C 78.170 150.087,78.305 150.640,78.305 150.800 C 78.305 150.961,78.491 151.721,78.718 152.489 C 78.945 153.257,79.263 154.362,79.424 154.945 C 79.586 155.527,79.850 156.481,80.012 157.064 C 80.174 157.646,80.502 158.850,80.740 159.738 C 80.978 160.626,81.335 161.942,81.532 162.664 C 81.730 163.385,82.048 164.566,82.240 165.288 C 82.714 167.069,83.166 168.555,83.346 168.920 C 83.472 169.177,84.403 169.231,89.535 169.276 C 96.516 169.338,96.427 169.357,95.974 167.911 C 95.695 167.019,95.370 165.872,94.774 163.673 C 94.609 163.063,94.299 161.927,94.086 161.150 C 93.874 160.373,93.540 159.147,93.345 158.426 C 93.151 157.704,92.813 156.478,92.596 155.701 C 92.378 154.924,92.076 153.835,91.923 153.280 C 91.770 152.725,91.469 151.635,91.254 150.858 C 91.039 150.081,90.716 148.900,90.536 148.234 C 90.356 147.568,89.977 146.206,89.692 145.207 C 89.408 144.208,89.000 142.732,88.786 141.927 C 87.958 138.824,87.598 137.498,87.289 136.428 C 87.113 135.817,86.845 134.818,86.692 134.208 C 86.540 133.597,86.223 132.417,85.988 131.584 C 85.753 130.752,85.436 129.617,85.284 129.062 C 85.131 128.507,84.814 127.371,84.578 126.539 C 83.705 123.453,83.577 122.987,83.354 122.099 C 83.100 121.090,82.736 119.737,82.266 118.063 C 81.683 115.985,81.174 114.130,80.743 112.513 C 80.506 111.625,80.189 110.489,80.038 109.990 C 79.887 109.490,79.606 108.491,79.415 107.770 C 79.223 107.048,78.890 105.822,78.675 105.045 C 78.284 103.632,78.049 102.763,77.395 100.303 C 77.203 99.581,76.881 98.446,76.680 97.780 C 76.479 97.114,76.253 96.251,76.176 95.863 C 76.100 95.474,75.970 95.066,75.886 94.955 C 75.802 94.844,75.669 94.390,75.591 93.946 C 75.512 93.502,75.313 92.684,75.149 92.129 C 74.739 90.747,74.410 89.562,73.551 86.377 C 72.541 82.633,71.802 79.943,71.151 77.647 C 70.987 77.065,70.800 76.362,70.737 76.085 C 70.631 75.621,70.438 74.925,69.734 72.452 C 69.591 71.953,69.276 70.817,69.033 69.929 C 68.789 69.041,68.464 67.861,68.310 67.306 C 67.807 65.496,67.258 63.497,66.897 62.159 C 66.526 60.785,65.961 58.719,65.490 57.013 C 65.337 56.458,64.886 54.778,64.487 53.280 C 64.088 51.781,63.665 50.283,63.547 49.950 C 63.429 49.617,63.253 48.965,63.158 48.501 C 63.062 48.037,62.839 47.174,62.661 46.583 C 62.483 45.993,62.213 45.055,62.061 44.501 C 61.909 43.946,61.593 42.810,61.359 41.978 C 61.125 41.145,60.796 39.965,60.628 39.354 C 60.460 38.744,60.197 37.836,60.044 37.336 C 59.891 36.837,59.702 36.065,59.624 35.621 C 59.546 35.177,59.401 34.656,59.302 34.463 C 59.202 34.270,59.036 33.725,58.933 33.252 C 58.829 32.779,58.552 31.710,58.317 30.878 C 58.082 30.045,57.770 28.910,57.623 28.355 C 57.477 27.800,57.206 26.801,57.022 26.135 C 56.838 25.469,56.499 24.243,56.270 23.411 C 56.041 22.578,55.677 21.261,55.463 20.484 C 55.248 19.707,54.935 18.572,54.767 17.962 C 54.598 17.351,54.332 16.352,54.176 15.742 C 54.020 15.131,53.710 13.996,53.488 13.219 C 52.667 10.352,52.443 9.553,52.042 8.073 C 51.817 7.240,51.497 6.060,51.330 5.449 C 51.164 4.839,50.892 3.794,50.727 3.128 C 50.129 0.710,49.659 0.482,49.170 2.371 M108.296 6.979 C 108.040 7.647,108.159 168.825,108.416 169.082 C 108.731 169.397,119.309 169.427,119.892 169.115 C 120.276 168.909,120.283 168.223,120.283 126.859 C 120.283 91.150,120.325 84.777,120.564 84.579 C 120.772 84.406,125.102 84.348,137.207 84.356 L 153.568 84.366 153.887 83.880 C 154.325 83.211,154.255 71.909,153.810 71.373 C 153.556 71.068,152.136 71.039,137.150 71.039 C 124.677 71.039,120.709 70.982,120.525 70.797 C 120.173 70.445,120.173 20.574,120.525 20.222 C 120.709 20.037,124.840 19.980,137.886 19.980 L 155.005 19.980 155.202 19.462 C 155.472 18.752,155.461 7.557,155.190 7.050 C 154.894 6.498,108.508 6.428,108.296 6.979 M169.769 6.902 C 169.359 7.311,169.428 19.248,169.843 19.663 C 170.125 19.944,171.598 19.980,183.021 19.980 C 192.756 19.980,195.942 20.039,196.125 20.222 C 196.313 20.410,196.367 40.161,196.367 107.888 L 196.367 195.311 196.821 195.433 C 197.740 195.679,209.794 195.574,210.050 195.318 C 210.238 195.130,210.293 175.405,210.293 107.770 C 210.293 40.135,210.347 20.410,210.535 20.222 C 210.718 20.039,213.924 19.980,223.729 19.980 C 234.449 19.980,236.721 19.932,236.911 19.703 C 237.074 19.507,237.125 17.599,237.087 13.094 L 237.033 6.761 203.522 6.710 C 177.625 6.670,169.956 6.714,169.769 6.902 M250.101 6.794 C 249.616 6.989,249.749 19.509,250.239 19.771 C 250.966 20.160,393.642 20.052,394.032 19.663 C 394.446 19.249,394.516 7.311,394.107 6.902 C 393.864 6.659,250.702 6.551,250.101 6.794 M277.296 34.630 C 276.114 34.709,274.113 35.107,271.645 35.754 C 267.648 36.801,263.129 39.045,259.031 42.016 C 255.049 44.904,249.202 51.102,246.501 55.298 C 246.180 55.797,245.869 56.251,245.810 56.307 C 245.694 56.415,245.041 57.396,244.705 57.964 C 241.956 62.618,240.601 65.206,239.182 68.517 C 238.706 69.627,238.237 70.716,238.140 70.938 C 238.043 71.160,237.768 71.842,237.530 72.452 C 237.292 73.063,237.011 73.778,236.906 74.042 C 236.607 74.796,235.218 79.054,234.725 80.727 C 233.645 84.397,233.436 85.204,233.002 87.386 C 232.858 88.108,232.644 89.107,232.526 89.606 C 232.140 91.243,231.703 93.523,231.578 94.551 C 231.511 95.106,231.372 96.014,231.270 96.569 C 231.056 97.723,230.555 101.983,230.250 105.247 C 229.988 108.039,229.988 123.099,230.249 125.933 C 230.775 131.643,231.684 137.786,232.593 141.776 C 233.343 145.065,233.738 146.709,234.002 147.629 C 234.964 150.981,235.242 151.882,235.935 153.885 C 236.968 156.873,237.315 157.846,237.518 158.325 C 245.376 176.835,255.365 188.393,267.508 193.025 C 268.285 193.321,269.219 193.695,269.583 193.856 C 269.948 194.016,270.421 194.147,270.636 194.147 C 270.850 194.147,271.432 194.285,271.929 194.454 C 273.819 195.096,279.084 195.593,281.408 195.349 C 284.177 195.058,285.912 194.780,287.026 194.447 C 290.344 193.457,290.751 193.308,293.239 192.174 C 296.010 190.911,300.538 188.049,302.422 186.369 C 302.755 186.072,303.345 185.565,303.734 185.242 L 304.440 184.655 304.498 174.113 C 304.554 163.849,304.514 162.566,304.147 162.700 C 304.050 162.736,303.250 163.673,302.370 164.783 C 298.926 169.124,294.586 172.809,290.601 174.774 C 289.666 175.236,288.747 175.694,288.560 175.792 C 284.288 178.039,276.581 178.256,271.039 176.286 C 260.810 172.648,251.317 160.748,246.408 145.409 C 246.159 144.632,245.884 143.848,245.797 143.668 C 245.710 143.487,245.575 142.988,245.497 142.558 C 245.419 142.128,245.280 141.629,245.187 141.449 C 245.025 141.133,244.861 140.466,243.984 136.529 C 243.524 134.467,243.056 131.898,242.788 129.970 C 242.688 129.248,242.445 127.523,242.248 126.135 C 241.740 122.562,241.727 107.625,242.228 104.137 C 242.412 102.861,242.616 101.317,242.682 100.706 C 243.325 94.789,246.326 83.560,248.534 78.809 C 248.688 78.476,249.008 77.750,249.245 77.195 C 249.902 75.651,251.624 72.308,252.550 70.778 C 253.007 70.023,253.472 69.251,253.585 69.062 C 254.141 68.127,256.008 65.472,256.311 65.187 C 256.369 65.131,256.805 64.586,257.279 63.976 C 260.613 59.679,265.617 55.849,270.737 53.677 C 271.408 53.392,273.689 52.726,274.975 52.440 C 276.596 52.078,282.252 52.081,283.855 52.444 C 286.946 53.144,287.948 53.489,290.716 54.806 C 293.745 56.246,297.788 59.223,300.331 61.886 C 301.505 63.114,303.680 65.731,303.782 66.038 C 303.824 66.165,304.012 66.209,304.200 66.137 C 304.514 66.017,304.541 65.176,304.541 55.465 L 304.541 44.924 303.378 43.804 C 302.739 43.188,301.944 42.480,301.613 42.231 C 299.477 40.626,298.923 40.239,297.523 39.371 C 294.744 37.648,289.119 35.323,287.712 35.316 C 287.477 35.314,286.847 35.181,286.312 35.018 C 285.334 34.721,279.615 34.475,277.296 34.630 M366.700 34.703 C 365.757 34.792,364.729 34.967,364.417 35.091 C 364.104 35.216,363.631 35.318,363.364 35.318 C 363.098 35.318,362.491 35.442,362.015 35.594 C 361.540 35.746,360.515 36.073,359.738 36.321 C 358.442 36.735,357.775 37.006,355.811 37.920 C 354.867 38.359,351.365 40.347,350.831 40.747 C 350.594 40.924,350.197 41.206,349.950 41.372 C 347.834 42.795,343.660 46.442,342.086 48.242 C 341.479 48.936,340.887 49.604,340.770 49.727 C 340.653 49.849,340.195 50.404,339.754 50.959 C 339.312 51.514,338.853 52.059,338.733 52.170 C 338.614 52.281,338.187 52.841,337.786 53.415 C 337.385 53.989,336.652 55.038,336.157 55.746 C 334.096 58.695,331.195 63.863,329.668 67.306 C 329.521 67.639,329.197 68.365,328.950 68.920 C 328.072 70.889,327.960 71.160,327.279 72.957 C 326.468 75.097,325.345 78.438,324.769 80.424 C 324.544 81.201,324.214 82.324,324.037 82.919 C 323.859 83.515,323.713 84.179,323.713 84.396 C 323.713 84.612,323.629 84.946,323.527 85.138 C 323.424 85.330,323.106 86.573,322.820 87.900 C 321.853 92.392,321.446 94.693,321.075 97.780 C 320.968 98.668,320.787 99.971,320.674 100.676 C 319.758 106.354,319.761 124.979,320.679 130.474 C 320.790 131.140,320.968 132.412,321.075 133.300 C 321.437 136.310,321.765 138.166,322.699 142.482 C 323.627 146.767,325.086 151.729,326.706 156.105 C 327.199 157.437,327.732 158.885,327.890 159.322 C 328.457 160.889,331.360 166.892,332.483 168.819 C 332.871 169.485,333.279 170.233,333.389 170.480 C 333.809 171.425,338.235 177.903,338.665 178.204 C 338.745 178.259,339.231 178.850,339.747 179.516 C 341.069 181.225,344.628 184.828,346.364 186.215 C 347.171 186.859,347.921 187.489,348.032 187.614 C 348.143 187.739,348.961 188.319,349.849 188.902 C 350.737 189.485,351.709 190.132,352.010 190.339 C 352.311 190.547,352.602 190.716,352.657 190.716 C 352.712 190.716,353.196 190.975,353.732 191.291 C 354.585 191.794,355.550 192.243,357.921 193.238 C 362.128 195.004,368.951 195.870,373.158 195.170 C 375.907 194.713,378.123 194.200,378.941 193.830 C 379.290 193.671,379.665 193.542,379.773 193.542 C 380.810 193.542,387.114 190.166,389.744 188.201 C 392.116 186.430,392.370 186.224,393.385 185.254 L 394.349 184.333 394.349 173.397 C 394.349 166.381,394.278 162.462,394.151 162.462 C 394.042 162.462,393.253 163.348,392.398 164.430 C 390.459 166.884,386.661 170.684,384.662 172.170 C 383.280 173.198,379.764 175.378,379.489 175.378 C 379.426 175.378,379.089 175.511,378.739 175.672 C 366.727 181.219,353.241 175.646,343.777 161.222 C 341.774 158.170,338.244 151.317,338.244 150.481 C 338.244 150.342,338.111 150.052,337.948 149.837 C 337.785 149.621,337.649 149.323,337.645 149.173 C 337.642 149.023,337.511 148.614,337.355 148.265 C 337.199 147.915,336.868 146.993,336.618 146.216 C 336.369 145.439,336.051 144.485,335.912 144.097 C 335.682 143.453,335.304 142.096,334.508 139.051 C 333.520 135.270,332.542 129.434,332.193 125.227 C 331.390 115.555,331.390 114.516,332.193 104.844 C 332.800 97.534,335.133 87.081,337.395 81.534 C 337.508 81.256,337.797 80.530,338.036 79.919 C 338.496 78.743,338.659 78.372,339.633 76.287 C 339.970 75.565,340.340 74.748,340.456 74.470 C 340.571 74.193,340.751 73.829,340.857 73.663 C 340.962 73.496,341.705 72.225,342.508 70.838 C 344.164 67.974,344.888 66.893,346.492 64.884 C 349.096 61.624,351.001 59.698,353.375 57.921 C 353.746 57.644,354.153 57.326,354.279 57.215 C 354.538 56.986,354.715 56.875,356.811 55.620 C 368.151 48.832,382.150 52.070,391.624 63.673 C 392.927 65.270,393.989 66.398,394.188 66.398 C 394.277 66.398,394.349 61.576,394.349 55.683 L 394.349 44.969 393.448 44.093 C 386.265 37.113,376.705 33.756,366.700 34.703 M50.145 45.673 C 50.313 45.929,50.541 46.617,50.652 47.202 C 50.762 47.787,50.910 48.357,50.979 48.469 C 51.048 48.581,51.224 49.187,51.370 49.815 C 51.516 50.444,51.764 51.512,51.921 52.188 C 52.078 52.864,52.268 53.516,52.343 53.638 C 52.418 53.759,52.558 54.250,52.653 54.729 C 52.749 55.208,53.074 56.509,53.375 57.619 C 54.077 60.208,54.442 61.585,54.793 62.967 C 55.079 64.092,55.318 65.000,56.097 67.911 C 56.335 68.799,56.837 70.706,57.213 72.149 C 57.589 73.592,58.094 75.499,58.334 76.387 C 58.574 77.275,58.850 78.394,58.948 78.873 C 59.045 79.352,59.186 79.844,59.261 79.965 C 59.336 80.086,59.513 80.693,59.655 81.314 C 59.984 82.755,60.294 83.996,60.644 85.267 C 60.796 85.822,61.115 87.003,61.352 87.891 C 61.589 88.779,61.908 89.960,62.061 90.515 C 62.213 91.070,62.434 91.910,62.552 92.381 C 62.669 92.853,62.861 93.625,62.978 94.097 C 63.095 94.569,63.315 95.409,63.466 95.964 C 63.616 96.519,63.875 97.472,64.041 98.083 C 64.206 98.693,64.539 99.965,64.781 100.908 C 65.023 101.852,65.340 103.032,65.486 103.532 C 65.633 104.031,65.814 104.758,65.888 105.146 C 65.963 105.535,66.145 106.216,66.293 106.660 C 66.800 108.186,67.080 109.792,66.874 109.998 C 66.749 110.123,60.524 110.175,49.739 110.142 C 30.421 110.084,32.377 110.311,32.962 108.189 C 33.339 106.822,34.012 104.265,34.429 102.624 C 34.598 101.958,34.867 100.959,35.028 100.404 C 35.189 99.849,35.405 99.031,35.508 98.587 C 35.611 98.143,35.892 97.053,36.133 96.165 C 36.374 95.277,36.651 94.159,36.748 93.680 C 36.846 93.201,36.976 92.727,37.037 92.628 C 37.167 92.417,38.265 88.306,39.352 83.956 C 39.477 83.456,39.705 82.593,39.860 82.038 C 40.014 81.483,40.331 80.303,40.563 79.415 C 40.796 78.527,41.167 77.119,41.388 76.287 C 41.610 75.454,41.929 74.228,42.098 73.562 C 42.267 72.896,42.531 71.897,42.684 71.342 C 43.031 70.092,43.341 68.855,43.675 67.388 C 43.817 66.768,43.994 66.161,44.069 66.039 C 44.144 65.918,44.285 65.427,44.382 64.948 C 44.554 64.102,45.019 62.331,45.830 59.435 C 46.236 57.985,46.570 56.715,47.106 54.591 C 47.274 53.925,47.588 52.699,47.805 51.867 C 48.021 51.034,48.494 49.195,48.854 47.780 C 49.541 45.086,49.647 44.913,50.145 45.673 M4.978 182.374 C 4.652 182.701,4.830 195.310,5.163 195.438 C 5.647 195.623,177.661 195.578,177.954 195.392 C 178.153 195.266,178.198 193.807,178.156 188.785 L 178.103 182.341 91.608 182.290 C 44.036 182.263,5.052 182.300,4.978 182.374 " stroke="none" fill="#076da4" fill-rule="evenodd"></path></g></svg>