<?xml version="1.0" encoding="utf-8"?>

<!DOCTYPE svg PUBLIC "-//W3C//DTD SVG 1.1//EN" "http://www.w3.org/Graphics/SVG/1.1/DTD/svg11.dtd">
<svg version="1.1" id="Layer_1" xmlns="http://www.w3.org/2000/svg" xmlns:xlink="http://www.w3.org/1999/xlink" x="0px" y="0px"
	 viewBox="0 0 1535.5566 1693.9089" enable-background="new 0 0 1535.5566 1693.9089" xml:space="preserve">
<g id="layer1_1_" transform="translate(-1077.7318,-229.8187)">
	<path id="path19449_1_" d="M1633.0017,1876.7732c260.7216,0,521.4429,0,781.6719,0
		c-32.8428-154.3505-72.1501-408.2728-55.2302-470.5089c27.8672-105.5531,117.9214-185.2161,151.761-269.8579
		c172.1553-430.1788-38.2014-804.6875-513.9825-854.3834c-420.1136-43.8813-653.7932,194.6746-686.6362,441.1318
		c-3.4811,26.3881,0,52.7762,12.4423,80.1613c-57.7153,90.1186-190.5698,223.0552-202.0098,286.7859
		c-6.9684,38.3367,38.3108,51.7798,60.2063,65.2236c20.8989,6.9713,43.7847,1.9905,57.7152,18.92
		c9.9514,12.4475-3.4811,33.3586-6.4702,48.7938c-0.4982,25.3925-30.3461,37.84-27.3632,61.2396
		c2.9891,19.9164,19.9028,27.8827,35.328,40.3301c16.4214,12.9442-41.7982,37.8394-22.8917,60.7433
		c19.4044,22.4041,47.77,48.2947,37.8126,80.1597c-14.4288,49.2911-42.2964,100.5735-19.4045,138.9115
		c22.8917,37.8401,54.7323,60.2443,103.991,70.2002c77.1198,0,154.7438,1.5035,232.3616,1.5035
		c26.865,23.4005,45.7714,99.0791,60.7046,200.6459H1633.0017z"/>
</g>
</svg>
