<?xml version="1.0" encoding="iso-8859-1"?>
<!-- Generator: Adobe Illustrator 19.0.0, SVG Export Plug-In . SVG Version: 6.00 Build 0)  -->
<svg version="1.1" id="Layer_1" xmlns="http://www.w3.org/2000/svg" xmlns:xlink="http://www.w3.org/1999/xlink" x="0px" y="0px"
	 viewBox="0 0 300 300" style="enable-background:new 0 0 300 300;" xml:space="preserve">
<g id="XMLID_1185_">
	<rect id="XMLID_28_" y="140" style="fill:#EA348B;" width="160" height="160"/>
	<rect id="XMLID_27_" x="150.001" y="140" style="fill:#FF9811;" width="149.999" height="160"/>
	<rect id="XMLID_26_" x="140" y="0.001" style="fill:#FFE98F;" width="160" height="149.999"/>
	<path id="XMLID_1186_" style="fill:#AF2768;" d="M162.504,193.776c-3.638,0-7.967,0.628-12.529,1.771V150L0,300h149.975v-45.5
		c4.563,1.144,8.893,1.772,12.53,1.772c17.256-0.001,31.244-13.992,31.244-31.25C193.749,207.765,179.76,193.775,162.504,193.776z"
		/>
	<polygon id="XMLID_24_" style="fill:#00D7DF;" points="150,0 150.001,150 0,130 0,0 	"/>
	<path id="XMLID_23_" style="fill:#FFDA44;" d="M137.496,106.224c3.637,0,7.967-0.628,12.529-1.771V150L300,0H150.023l0.002,45.5
		c-4.563-1.144-8.895-1.773-12.531-1.772c-17.256,0.001-31.244,13.992-31.244,31.25C106.25,92.235,120.24,106.224,137.496,106.224z"
		/>
	<path id="XMLID_3_" style="fill:#FF5023;" d="M193.776,137.496c0,3.638,0.628,7.967,1.771,12.53H150L300,300V150.024l-45.5,0.002
		c1.144-4.563,1.773-8.895,1.772-12.531c-0.001-17.256-13.992-31.244-31.25-31.244C207.765,106.251,193.776,120.24,193.776,137.496z
		"/>
	<path id="XMLID_2_" style="fill:#00A0A6;" d="M106.224,162.504c0-3.638-0.628-7.967-1.771-12.53H150L0,0v149.976l45.5-0.002
		c-1.144,4.563-1.773,8.895-1.772,12.531c0.001,17.256,13.992,31.244,31.25,31.244C92.235,193.749,106.224,179.76,106.224,162.504z"
		/>
</g>
<g>
</g>
<g>
</g>
<g>
</g>
<g>
</g>
<g>
</g>
<g>
</g>
<g>
</g>
<g>
</g>
<g>
</g>
<g>
</g>
<g>
</g>
<g>
</g>
<g>
</g>
<g>
</g>
<g>
</g>
</svg>
